<?xml version="1.0" standalone="no"?>
<!DOCTYPE svg PUBLIC "-//W3C//DTD SVG 1.1//EN" "http://www.w3.org/Graphics/SVG/1.1/DTD/svg11.dtd" >
<svg xmlns="http://www.w3.org/2000/svg" xmlns:xlink="http://www.w3.org/1999/xlink" version="1.1">
<metadata>
Created by FontForge 20200314 at Fri Oct 11 00:08:21 2013
 By Unknown
Richmond Hill Two Designed By Bob Alonso, 1995. All rights reserved.
</metadata>
<defs>
<font id="RichmondHillW90-TwoRegular" horiz-adv-x="719" >
  <font-face 
    font-family="RichmondHillW90-TwoRegular"
    font-weight="400"
    font-stretch="normal"
    units-per-em="1000"
    panose-1="0 0 4 0 0 0 0 0 0 0"
    ascent="800"
    descent="-200"
    x-height="568"
    cap-height="755"
    bbox="-100 -211 1378 1068"
    underline-thickness="50"
    underline-position="-218"
    unicode-range="U+0020-222B"
  />
<missing-glyph horiz-adv-x="500" 
d="M63 0v852h375v-852h-375zM125 63h250v727h-250v-727z" />
    <glyph glyph-name=".notdef" horiz-adv-x="500" 
d="M63 0v852h375v-852h-375zM125 63h250v727h-250v-727z" />
    <glyph glyph-name="glyph1" horiz-adv-x="0" 
 />
    <glyph glyph-name="glyph2" horiz-adv-x="255" 
 />
    <glyph glyph-name="space" unicode=" " horiz-adv-x="255" 
 />
    <glyph glyph-name="exclam" unicode="!" horiz-adv-x="305" 
d="M219 660q0 -68 -24.5 -203t-24.5 -205v-32h-38v32q0 77 -29 222q-23 117 -23 182q0 109 69 109q33 0 51.5 -29t18.5 -76zM230 66q0 -32 -23 -54.5t-55 -22.5t-54.5 22.5t-22.5 54.5t22.5 54.5t54.5 22.5t55 -22.5t23 -54.5z" />
    <glyph glyph-name="quotedbl" unicode="&#x22;" horiz-adv-x="404" 
d="M381 675q0 -76 -55 -136q-41 -44 -103 -73l-11 33q37 15 69.5 52t32.5 72q-13 -3 -27 -3q-30 0 -47 20.5t-17 51.5t22 52t55 21t57 -25.5t24 -64.5zM192 675q0 -76 -55 -136q-41 -44 -104 -73l-10 33q37 15 69.5 52t32.5 72q-13 -3 -27 -3q-30 0 -47.5 20.5t-17.5 51.5
t22.5 52t55.5 21t57 -25.5t24 -64.5z" />
    <glyph glyph-name="numbersign" unicode="#" horiz-adv-x="545" 
d="M530 593l-27 -99h-106q-9 -32 -29 -96h104l-27 -101h-108l-49 -173h-45l52 173h-123l-53 -173h-41l51 173h-114l28 101h114l31 96h-116l28 99h116q16 53 47 158h44l-48 -158h123q8 26 24 79t23 79h45l-47 -158h103zM353 494h-123q-15 -53 -29 -96h123q9 31 29 96z" />
    <glyph glyph-name="dollar" unicode="$" horiz-adv-x="502" 
d="M492 289q0 -76 -57 -123q-51 -42 -127 -49v-100h-35v98q-44 0 -70 4v-102h-35v107q-41 12 -79 40q-20 -14 -57 -41h-22v236h26q23 -151 132 -194v230q-146 43 -146 164q0 60 44 103q41 39 102 51v71h35v-68h3q46 0 67 -4v72h35v-80q41 -13 68 -34q17 11 56 39h21v-225
h-29q-13 136 -116 180v-183q86 -27 128 -64q56 -49 56 -128zM273 491v186q-25 7 -67 7h-3v-171q25 -7 70 -22zM168 523v157q-67 -19 -67 -73q0 -60 67 -84zM394 240q0 46 -21 71q-19 22 -65 39v-202q86 15 86 92zM273 146v215q-23 7 -70 23v-232q28 -6 70 -6z" />
    <glyph glyph-name="percent" unicode="%" horiz-adv-x="935" 
d="M915 240q0 -104 -61.5 -175.5t-147.5 -71.5q-82 0 -142.5 71.5t-60.5 175.5q0 99 61 173.5t143 74.5q86 0 147 -74t61 -174zM607 755l-234 -755h-48l234 755h48zM431 515q0 -105 -61 -177t-146 -72q-83 0 -143.5 72t-60.5 177q0 97 61 172t144 75q85 0 145.5 -74.5
t60.5 -172.5zM811 240q0 117 -23.5 166t-80.5 49q-53 0 -77 -50t-24 -165q0 -109 22 -159q24 -54 79 -54q104 0 104 213zM329 515q0 114 -24 163.5t-80 49.5q-54 0 -78 -50t-24 -163q0 -111 22 -161q24 -54 80 -54q104 0 104 215z" />
    <glyph glyph-name="ampersand" unicode="&#x26;" horiz-adv-x="902" 
d="M902 275q-4 -109 -69 -195q-68 -91 -160 -91q-101 0 -152 67q-56 -36 -103 -51q-53 -16 -124 -16q-109 0 -186.5 64t-77.5 161q0 94 89 163q70 54 179 83q-12 47 -12 90q0 87 33 144q39 71 118 71q57 0 88.5 -37.5t31.5 -97.5t-42 -110q-37 -45 -94 -69q75 -171 160 -280
q74 92 74 176q0 41 -21 66q-24 28 -65 28h-11v39h314v-39h-29q-66 0 -137 -140q-52 -105 -101 -162q53 -67 112 -67q60 0 102.5 60t46.5 145h31zM499 630q0 40 -16 67.5t-47 27.5q-27 0 -44.5 -28t-17.5 -67q0 -69 30 -139q37 15 64 51q31 40 31 88zM493 91q-43 52 -98 146
q-60 103 -87 179q-60 -17 -101 -64q-45 -52 -45 -120q0 -90 56 -140q51 -46 133 -46q75 0 142 45z" />
    <glyph glyph-name="quotesingle" unicode="'" horiz-adv-x="215" 
d="M192 675q0 -76 -55 -136q-41 -44 -104 -73l-10 33q37 15 69.5 52t32.5 72q-13 -3 -27 -3q-30 0 -47.5 20.5t-17.5 51.5t22.5 52t55.5 21t57 -25.5t24 -64.5z" />
    <glyph glyph-name="parenleft" unicode="(" horiz-adv-x="337" 
d="M307 -115q-118 39 -195 167q-82 137 -82 322q0 173 74.5 306t202.5 186v-43q-67 -27 -97 -114q-32 -92 -32 -279v-142q0 -327 129 -359v-44z" />
    <glyph glyph-name="parenright" unicode=")" horiz-adv-x="337" 
d="M307 374q0 -185 -83 -322q-77 -127 -194 -168v45q128 32 128 359v142q0 187 -31 279q-30 87 -97 114v43q128 -53 202.5 -186t74.5 -306z" />
    <glyph glyph-name="asterisk" unicode="*" horiz-adv-x="369" 
d="M338 498q-13 -22 -34 -22q-13 0 -24.5 9.5t-75.5 67.5q9 -42 19 -99q5 -44 -39 -44q-21 0 -31.5 13t-7.5 31q16 103 20 99q-32 -29 -75 -66q-13 -9 -26 -9q-20 0 -32 21q-7 11 -7 22q0 25 26 34q93 34 94 33q-40 14 -94 33q-26 11 -26 34q0 11 7 22q12 22 33 22
q14 0 25.5 -9.5t74.5 -67.5q-8 42 -19 99q-5 44 39 44q21 0 32 -13t8 -31q-17 -103 -21 -99q32 29 75 66q13 9 26 9q20 0 33 -21q6 -11 6 -22q0 -25 -25 -34q-94 -34 -95 -33q41 -14 95 -33q25 -11 25 -34q0 -11 -6 -22z" />
    <glyph glyph-name="plus" unicode="+" horiz-adv-x="549" 
d="M494 382h-188v-205h-64v205h-187v64h187v181h64v-181h188v-64z" />
    <glyph glyph-name="comma" unicode="," horiz-adv-x="215" 
d="M192 44q0 -76 -55 -136q-41 -44 -104 -72l-10 32q37 15 69.5 52t32.5 72q-13 -3 -27 -3q-30 0 -47.5 20.5t-17.5 52.5q0 30 22.5 51t55.5 21t57 -25t24 -65z" />
    <glyph glyph-name="hyphen" unicode="-" horiz-adv-x="228" 
d="M216 299h-204v79h204v-79z" />
    <glyph glyph-name="hyphen" unicode="&#x2010;" horiz-adv-x="228" 
d="M216 299h-204v79h204v-79z" />
    <glyph glyph-name="period" unicode="." horiz-adv-x="191" 
d="M168 61q0 -30 -21.5 -51t-51.5 -21t-51 21t-21 51t21 51.5t51 21.5t51.5 -21.5t21.5 -51.5z" />
    <glyph glyph-name="slash" unicode="/" horiz-adv-x="375" 
d="M340 755l-259 -755h-46l261 755h44z" />
    <glyph glyph-name="zero" unicode="0" horiz-adv-x="662" 
d="M640 378q0 -165 -92 -277t-221 -112q-124 0 -214.5 112.5t-90.5 276.5q0 153 91.5 270t214.5 117q130 0 222 -118q90 -114 90 -269zM493 376q0 185 -38 265.5t-127 80.5q-83 0 -121 -81t-38 -263q0 -176 35 -258q38 -88 124 -88q165 0 165 344z" />
    <glyph glyph-name="one" unicode="1" horiz-adv-x="473" 
d="M458 0h-414v39h58q93 0 93 96v356q0 80 -35 104q-30 21 -126 21h-19v39h19q88 0 159 31q75 31 98 83h30v-634q0 -96 81 -96h56v-39z" />
    <glyph glyph-name="two" unicode="2" horiz-adv-x="624" 
d="M574 0h-539v31l219 220q74 77 107 131q51 83 51 172q0 88 -41 133q-37 40 -98 40q-41 0 -76.5 -15.5t-35.5 -34.5q0 -7 10 -9q5 0 8 -1h-1q61 -21 61 -100q0 -40 -25.5 -67.5t-63.5 -27.5q-39 0 -62 31q-22 28 -22 72q0 96 79 147q66 43 163 43q115 0 180 -55.5
t65 -154.5q0 -77 -69 -158q-42 -50 -152 -141q-49 -39 -138 -121h247q59 0 76 14q21 17 21 79v34h36v-262z" />
    <glyph glyph-name="three" unicode="3" horiz-adv-x="586" 
d="M561 222q0 -111 -86 -175q-80 -58 -204 -58q-97 0 -167 43q-82 50 -82 138q0 44 23.5 74t61.5 30q36 0 61 -27t25 -67q0 -34 -26 -73q-1 -1 -2.5 -4t-2.5 -4q-8 -12 -8 -19q0 -27 37 -41q29 -10 70 -10q156 0 156 199q0 104 -52 145q-40 32 -126 32h-58v37h90
q140 0 140 149q0 68 -43 105q-38 32 -98 32q-44 0 -77 -14q-36 -16 -36 -38q0 -8 13 -18h1q31 -26 31 -76q0 -39 -22 -61.5t-55 -22.5t-56 28.5t-23 66.5q0 84 74 131q63 41 151 41q107 0 182 -39q92 -48 92 -136q0 -71 -66 -120q-56 -40 -120 -45q78 -19 132 -64
q70 -57 70 -139z" />
    <glyph glyph-name="four" unicode="4" horiz-adv-x="591" 
d="M561 211h-136v-76q0 -62 12.5 -79t55.5 -17h58v-39h-363v39h51q46 0 59 19q10 17 10 77v76h-318v29l413 535h22v-485h136v-79zM308 290v294q-75 -97 -227 -294h227z" />
    <glyph glyph-name="five" unicode="5" horiz-adv-x="626" 
d="M606 275q0 -124 -108 -208q-99 -78 -224 -78q-98 0 -165 45q-79 54 -79 152q0 42 27.5 74.5t65.5 32.5q42 0 66.5 -26.5t24.5 -74.5q0 -49 -28 -76l-5 -5q-14 -14 -14 -24q0 -23 37 -41q34 -17 71 -17q82 0 132 60q54 65 54 184q0 239 -206 239q-70 0 -114.5 -46.5
t-48.5 -125.5h-36l26 437q124 -45 278 -45q104 0 179 29l8 -9q-115 -144 -334 -144q-52 0 -102 10q-2 -44 -7 -136q67 70 173 70q131 0 226 -71q103 -78 103 -206z" />
    <glyph glyph-name="six" unicode="6" horiz-adv-x="628" 
d="M602 264q0 -126 -77.5 -200.5t-202.5 -74.5q-139 0 -220 111q-76 103 -76 264q0 166 104 285q100 116 230 116q83 0 137 -32q64 -37 64 -109q0 -40 -22.5 -66t-54.5 -26q-40 0 -63 25.5t-23 68.5q0 18 11 47q1 3 4 9q7 12 7 19q0 29 -64 29q-87 0 -144 -109
q-51 -96 -55 -225q64 104 190 104q105 0 178 -63q77 -67 77 -173zM464 243q0 103 -37.5 157.5t-106.5 54.5t-108.5 -52t-39.5 -143q0 -233 150 -233q66 0 104 56t38 160z" />
    <glyph glyph-name="seven" unicode="7" horiz-adv-x="591" 
d="M576 737q-48 -94 -94 -194l-43 -94q-68 -142 -91 -212q-37 -116 -36 -237h-172q20 93 77 197q35 65 116 184q75 111 110 174q22 39 36 71h-233q-92 0 -127 -26q-41 -32 -52 -129q0 -5 -3 -33h-39l31 317h509l11 -16v-2z" />
    <glyph glyph-name="eight" unicode="8" horiz-adv-x="636" 
d="M594 216q0 -92 -84 -159.5t-203 -67.5q-109 0 -190 50q-96 60 -96 165q0 70 57 134q45 50 97 73q-102 70 -102 160q0 88 76 143q70 51 170 51q89 0 156 -44q74 -49 74 -128q0 -51 -36 -102q-30 -42 -68 -67q69 -40 103 -80q46 -55 46 -128zM470 594q0 134 -150 134
q-59 0 -94.5 -31.5t-35.5 -80.5t81 -102q63 -34 127 -68q38 27 54 57q18 34 18 91zM477 169q0 56 -88 119q-47 35 -162 95l-17 9q-48 -24 -77 -75.5t-29 -112.5q0 -81 64 -130q57 -44 139 -44q77 0 123.5 34.5t46.5 104.5z" />
    <glyph glyph-name="nine" unicode="9" horiz-adv-x="630" 
d="M604 390q0 -180 -99 -293q-95 -108 -236 -108q-78 0 -135 33q-68 39 -68 110q0 40 23 66t56 26q39 0 62.5 -25.5t23.5 -68.5q0 -24 -11 -47l-5 -9q-5 -11 -5 -20q0 -30 66 -30q88 0 143 105q50 95 54 234q-67 -109 -191 -109q-104 0 -180 69t-76 176q0 104 81 183
q83 83 200 83q126 0 211.5 -110t85.5 -265zM458 495q0 232 -151 232q-66 0 -104.5 -56t-38.5 -160q0 -102 38 -157t107 -55q70 0 109.5 52.5t39.5 143.5z" />
    <glyph glyph-name="colon" unicode=":" horiz-adv-x="191" 
d="M168 456q0 -30 -21.5 -51t-51.5 -21t-51 21t-21 51t21 51.5t51 21.5t51.5 -21.5t21.5 -51.5zM168 61q0 -30 -21.5 -51t-51.5 -21t-51 21t-21 51t21 51.5t51 21.5t51.5 -21.5t21.5 -51.5z" />
    <glyph glyph-name="semicolon" unicode=";" horiz-adv-x="215" 
d="M178 456q0 -30 -21.5 -51t-51.5 -21t-51 21t-21 51t21 51.5t51 21.5t51.5 -21.5t21.5 -51.5zM192 44q0 -76 -55 -136q-41 -44 -104 -72l-10 32q37 15 69.5 52t32.5 72q-13 -3 -27 -3q-30 0 -47.5 20.5t-17.5 52.5q0 30 22.5 51t55.5 21t57 -25t24 -65z" />
    <glyph glyph-name="less" unicode="&#x3c;" horiz-adv-x="206" 
d="M171 151h-21l-115 232l115 230h21l-52 -230z" />
    <glyph glyph-name="equal" unicode="=" horiz-adv-x="473" 
d="M413 432h-353v63h353v-63zM413 318h-353v63h353v-63z" />
    <glyph glyph-name="greater" unicode="&#x3e;" horiz-adv-x="206" 
d="M171 383l-115 -232h-21l52 232l-52 230h21z" />
    <glyph glyph-name="question" unicode="?" horiz-adv-x="517" 
d="M491 541q0 -102 -75 -167q-70 -60 -165 -60h-2v-90h-42v224h31q55 0 96 33q47 38 47 100q0 69 -37 107.5t-95 38.5q-45 0 -83.5 -19.5t-53.5 -51.5q36 -2 61 -30.5t24 -66.5t-24.5 -63t-58.5 -25q-39 0 -63.5 29.5t-24.5 72.5q0 81 69 138q67 54 154 54
q109 0 175.5 -59.5t66.5 -164.5zM309 66q0 -32 -23 -54.5t-55 -22.5t-54.5 22.5t-22.5 54.5t22.5 54.5t54.5 22.5t55 -22.5t23 -54.5z" />
    <glyph glyph-name="at" unicode="@" horiz-adv-x="755" 
d="M740 439q0 -109 -64 -190t-154 -81q-72 0 -90 67q-55 -67 -113 -67q-40 0 -73 33q-41 41 -41 111q0 95 66 181t142 86q43 0 72 -36q2 9 7 22h87l-74 -291q-3 -12 -3 -22q0 -38 37 -38q65 0 110 71q43 67 43 153q0 114 -73 197q-83 94 -217 94q-112 0 -195 -90
q-95 -102 -95 -275q0 -143 80 -236q83 -98 221 -98q91 0 213 60l17 -36q-117 -64 -229 -64q-185 0 -297 117q-102 106 -102 257q0 172 116 287q112 113 271 113q148 0 243 -92.5t95 -232.5zM462 459q0 81 -53 81q-49 0 -87.5 -71t-38.5 -158q0 -93 53 -93q49 0 88 80
q38 77 38 161z" />
    <glyph glyph-name="A" unicode="A" 
d="M754 0h-381v39h39q82 0 82 64q0 16 -21 70q-17 40 -33 81h-264q-44 -106 -44 -132q0 -83 84 -83h47v-39h-338v39h23q57 0 106 66q34 47 78 151l215 513h20l250 -605q27 -63 44 -87q28 -38 65 -38h28v-39zM424 294l-115 292l-118 -292h233z" />
    <glyph glyph-name="B" unicode="B" horiz-adv-x="824" 
d="M779 210q0 -102 -99 -160q-87 -50 -215 -50h-439v39h48q85 0 85 96v485q0 96 -77 96h-56v39h454q101 0 173 -42q85 -49 85 -139q0 -71 -66 -121q-51 -39 -118 -53q79 -12 141 -51q84 -55 84 -139zM589 570q0 145 -124 145h-180v-301h199q48 0 76.5 40.5t28.5 115.5z
M616 214q0 82 -39 124q-35 38 -93 38h-199v-337h175q67 0 108 40q48 45 48 135z" />
    <glyph glyph-name="C" unicode="C" horiz-adv-x="737" 
d="M697 299q-13 -140 -102.5 -225t-228.5 -85q-142 0 -241 112.5t-99 276.5q0 165 101 276t247 111q119 0 210 -89q23 22 70 69h33v-322h-30q-28 123 -92 203q-78 97 -189 97q-87 0 -130 -61q-57 -80 -57 -283q0 -188 47 -265.5t159 -77.5q106 0 179 77t79 186h44z" />
    <glyph glyph-name="D" unicode="D" horiz-adv-x="825" 
d="M799 379q0 -160 -99.5 -269.5t-247.5 -109.5h-426v39h48q85 0 85 96v485q0 96 -76 96h-57v39h426q144 0 241 -95q106 -104 106 -281zM636 382q0 202 -57 275q-45 58 -156 58h-138v-676h138q108 0 157 69q56 79 56 274z" />
    <glyph glyph-name="E" unicode="E" horiz-adv-x="818" 
d="M743 0h-717v39h47q85 0 85 96v485q0 96 -76 96h-56v39h705v-282h-36q-12 138 -65 190.5t-175 52.5h-170v-307h61q62 0 100 39t38 111v31h40v-431h-40v33q0 78 -37.5 127.5t-100.5 49.5h-61v-330h161q110 0 165 39q92 63 95 240h37v-318z" />
    <glyph glyph-name="F" unicode="F" horiz-adv-x="755" 
d="M715 425h-37q-23 291 -236 291h-157v-307h53q64 0 102 32q44 36 44 106v47h39v-436h-39v36q0 83 -40.5 129t-105.5 46h-53v-236q0 -94 90 -94h64v-39h-413v39h47q85 0 85 96v485q0 96 -76 96h-56v39h689v-330z" />
    <glyph glyph-name="G" unicode="G" horiz-adv-x="789" 
d="M789 333h-34q-39 0 -55 -14.5t-16 -49.5v-269h-21q-18 47 -60 47q-19 0 -88.5 -29t-131.5 -29q-166 0 -264 112q-93 108 -93 277q0 164 104.5 275.5t250.5 111.5q124 0 205 -78l67 68h28v-286h-28q-19 93 -88 167q-79 87 -182 87q-90 0 -135 -61q-62 -82 -62 -284
q0 -188 44.5 -267.5t150.5 -79.5q95 0 148 57q44 48 44 112v56q0 45 -12.5 61t-43.5 16h-68v40h340v-40z" />
    <glyph glyph-name="H" unicode="H" horiz-adv-x="923" 
d="M897 0h-391v39h39q93 0 93 95v231h-353v-230q0 -43 25.5 -69.5t69.5 -26.5h45v-39h-399v39h47q85 0 85 96v485q0 96 -76 96h-55v39h388v-39h-49q-81 0 -81 -93v-217h353v214q0 55 -20.5 75.5t-82.5 20.5h-27v39h388v-39h-43q-88 0 -88 -91v-490q0 -96 95 -96h37v-39z" />
    <glyph glyph-name="I" unicode="I" horiz-adv-x="444" 
d="M418 0h-392v39h48q85 0 85 96v485q0 96 -77 96h-56v39h392v-39h-52q-81 0 -81 -93v-488q0 -96 90 -96h43v-39z" />
    <glyph glyph-name="J" unicode="J" horiz-adv-x="626" 
d="M606 715h-57q-46 0 -64 -22.5t-18 -70.5v-382q0 -251 -241 -251q-78 0 -137 40q-67 47 -67 122q0 46 28 74.5t65 28.5q38 0 62.5 -23t24.5 -60q0 -28 -24.5 -52t-24.5 -39q0 -24 25 -37.5t55 -13.5q62 0 84 39q24 44 24 172v379q0 96 -75 96h-68v40h408v-40z" />
    <glyph glyph-name="K" unicode="K" horiz-adv-x="888" 
d="M883 0h-395v39h57q53 0 53 42q0 23 -17 48l-189 270q-36 -33 -107 -98v-166q0 -43 25.5 -69.5t69.5 -26.5h38v-39h-392v39h47q85 0 85 96v485q0 96 -76 96h-56v39h382v-39h-42q-81 0 -81 -93v-270q79 75 238 221q42 37 42 83q0 59 -77 59h-20v39h391v-39h-40
q-56 0 -115 -38q-45 -29 -122 -103q-7 -6 -92 -88q95 -139 244 -356q64 -92 113 -92h36v-39z" />
    <glyph glyph-name="L" unicode="L" horiz-adv-x="736" 
d="M716 0h-690v39h47q85 0 85 96v485q0 96 -76 96h-56v39h418v-39h-78q-81 0 -81 -96v-581h117q135 0 206 89.5t71 262.5h37v-391z" />
    <glyph glyph-name="M" unicode="M" horiz-adv-x="997" 
d="M971 0h-413v39h54q94 0 94 95v478l-256 -612h-23l-230 656v-436q0 -181 93 -181h55v-39h-323v39h43q97 0 97 181v400q0 96 -83 96h-57v39h272l196 -565l235 565h245v-39h-51q-88 0 -88 -91v-490q0 -96 94 -96h46v-39z" />
    <glyph glyph-name="N" unicode="N" horiz-adv-x="903" 
d="M898 716h-61q-47 0 -66 -49q-16 -41 -16 -128v-549l-30 10l-528 625v-409q0 -177 90 -177h57v-39h-322v39h53q86 0 86 177v404q0 96 -83 96h-56v39h252l445 -526v310q0 78 -8 111q-17 64 -72 64h-66v41h325v-39z" />
    <glyph glyph-name="O" unicode="O" horiz-adv-x="749" 
d="M727 378q0 -165 -104.5 -277t-252.5 -112q-143 0 -245.5 112t-102.5 277q0 153 103.5 270t245.5 117q149 0 254 -118q102 -114 102 -269zM567 376q0 184 -46 265t-150 81q-97 0 -142 -80q-48 -83 -48 -264q0 -175 44 -258q46 -88 146 -88q196 0 196 344z" />
    <glyph glyph-name="P" unicode="P" horiz-adv-x="763" 
d="M748 554q0 -185 -278 -185h-185v-236q0 -94 90 -94h45v-39h-394v39h47q85 0 85 96v485q0 96 -76 96h-56v39h442q280 0 280 -201zM589 565q0 85 -28 118t-91 33h-185v-307h187q63 0 89 31q28 35 28 125z" />
    <glyph glyph-name="Q" unicode="Q" horiz-adv-x="786" 
d="M786 99q-1 -85 -33.5 -133t-86.5 -48q-42 0 -81 38q-12 13 -56 70q-75 -37 -155 -37q-141 0 -244.5 116t-103.5 273q0 152 105.5 269.5t243.5 117.5q141 0 248.5 -117t107.5 -270q0 -164 -105 -277q63 -74 94 -74q33 0 39 72h27zM571 369q0 201 -46 280q-44 73 -150 73
q-190 0 -190 -344q0 -185 44 -265.5t146 -80.5q73 0 117 45q-41 56 -44 59q-27 29 -55 29q-52 0 -58 -73h-24v37q0 61 33.5 95.5t86.5 34.5q59 0 121 -68q19 74 19 178z" />
    <glyph glyph-name="R" unicode="R" horiz-adv-x="855" 
d="M855 0h-249q-28 60 -66.5 150.5t-64.5 145.5q-29 60 -50 79q-24 22 -66 22h-73v-264q0 -94 89 -94h61v-39h-410v39h48q85 0 85 96v485q0 96 -76 96h-57v39h434q295 0 295 -188q0 -76 -85 -122q-81 -44 -207 -45q48 -46 105 -46q17 0 33 5l33 -75q58 -138 87 -180
q43 -64 100 -64h34v-40zM596 577q0 81 -40 113q-32 26 -101 26h-169v-282h121q109 0 152 37q37 32 37 106z" />
    <glyph glyph-name="S" unicode="S" horiz-adv-x="737" 
d="M697 214q0 -108 -99 -171q-86 -54 -201 -54q-77 0 -127 13q-55 14 -114 51q-25 -18 -75 -53h-31v304h35q45 -275 312 -275q69 0 116 27q57 33 57 94q0 83 -71 126q-43 26 -160 55q-132 32 -183 66q-86 55 -86 162q0 94 78 151q75 54 187 54q77 0 127 -17q39 -13 80 -45
q26 17 75 51h29v-288h-36q-30 258 -274 258q-59 0 -105 -23q-59 -29 -59 -82q0 -62 69 -100q44 -24 152 -52q147 -38 205 -75q99 -62 99 -177z" />
    <glyph glyph-name="T" unicode="T" horiz-adv-x="735" 
d="M705 416h-39q0 300 -210 300h-26v-581q0 -44 24.5 -70t67.5 -26h50v-39h-405v39h52q85 0 85 96v581h-26q-210 0 -210 -300h-38v339h675v-339z" />
    <glyph glyph-name="U" unicode="U" horiz-adv-x="889" 
d="M884 715h-30q-106 0 -106 -176v-240q0 -152 -61 -225q-71 -86 -242 -86q-122 0 -196 42q-97 54 -97 174v416q0 95 -82 95h-50v40h375v-40h-36q-36 0 -58 -26.5t-22 -70.5v-346q0 -135 58 -193q47 -47 139 -47q232 0 232 253v254q0 85 -23 127q-28 49 -93 49h-31v40h323
v-40z" />
    <glyph glyph-name="V" unicode="V" horiz-adv-x="703" 
d="M778 715h-19q-60 0 -101.5 -46t-84.5 -158l-202 -523h-20l-241 603q-24 60 -44 84q-32 40 -80 40h-21v40h378v-40h-25q-83 0 -83 -70q0 -24 11 -54l160 -411q49 129 136 370q12 35 12 66q0 99 -109 99h-25v40h358v-40z" />
    <glyph glyph-name="W" unicode="W" horiz-adv-x="1071" 
d="M1076 715h-22q-95 0 -162 -195q-61 -177 -175 -532h-25l-163 561q-30 -93 -93 -280.5t-93 -280.5h-25q-55 189 -183 604q-18 58 -37 84q-28 39 -73 39h-25v40h360v-40h-16q-80 0 -80 -72q0 -17 5.5 -35.5t113.5 -379.5q40 119 111 343q12 40 12 70q0 74 -72 74h-24v40
h323v-40h-19q-68 0 -68 -72q0 -26 9 -60l99 -355q34 99 100 299q20 63 20 105q0 83 -75 83h-30v40h307v-40z" />
    <glyph glyph-name="X" unicode="X" horiz-adv-x="841" 
d="M851 0h-402v39h16q73 0 73 58q0 38 -33 91l-99 156q-19 -26 -98 -142q-33 -49 -33 -91q0 -72 86 -72h23v-39h-394v39h24q122 0 265 199q32 45 103 137q-5 8 -20 31q-38 55 -151 217q-65 93 -154 93h-32v39h415v-39h-16q-75 0 -75 -47q0 -18 14 -39l102 -150q3 4 73 99
q36 49 36 85q0 52 -75 52h-22v39h365v-39h-34q-72 0 -114 -23.5t-97 -97.5q-35 -48 -111 -149q63 -90 208 -301q43 -64 63 -82q27 -24 71 -24h23v-39z" />
    <glyph glyph-name="Y" unicode="Y" horiz-adv-x="805" 
d="M825 716h-23q-57 0 -104 -42q-36 -32 -102 -125q-18 -25 -133 -191v-223q0 -43 25.5 -69.5t69.5 -26.5h44v-39h-415v39h65q85 0 85 96v214l-171 257q-45 66 -73 86q-32 24 -86 24h-22v39h425v-39h-53q-66 0 -66 -49q0 -18 12 -39q1 -1 144 -227l118 174q36 51 36 90
q0 51 -64 51h-52v39h340v-39z" />
    <glyph glyph-name="Z" unicode="Z" horiz-adv-x="713" 
d="M668 0h-638v22l467 694h-133q-129 0 -190 -77q-53 -68 -70 -223h-37v339h599v-24l-468 -692h173q131 0 193.5 66.5t69.5 217.5h33z" />
    <glyph glyph-name="bracketleft" unicode="[" horiz-adv-x="265" 
d="M235 -94h-168q-37 0 -37 43v856q0 43 37 43h168v-39h-78q-9 0 -9 -8v-846q0 -10 9 -10h78v-39z" />
    <glyph glyph-name="backslash" unicode="\" horiz-adv-x="375" 
d="M340 0h-46l-259 755h43z" />
    <glyph glyph-name="bracketright" unicode="]" horiz-adv-x="264" 
d="M234 -51q0 -43 -36 -43h-168v39h79q8 0 8 10v846q0 8 -8 8h-79v39h168q36 0 36 -43v-856z" />
    <glyph glyph-name="asciicircum" unicode="^" horiz-adv-x="700" 
d="M479 796l-16 -20l-113 81q-41 -31 -112 -81l-18 19q74 89 93 121q18 -2 41 -2t36 2q26 -41 89 -120z" />
    <glyph glyph-name="underscore" unicode="_" horiz-adv-x="757" 
d="M757 -157h-757v48h757v-48z" />
    <glyph glyph-name="grave" unicode="`" horiz-adv-x="531" 
d="M265 634h-23q-52 80 -99 147q-17 25 -17 50q0 39 33 39q37 0 47 -48q17 -86 59 -188z" />
    <glyph glyph-name="a" unicode="a" horiz-adv-x="562" 
d="M612 0h-326v38h35q65 0 65 43q0 12 -17 51q-12 29 -25 58h-205q-33 -80 -33 -95q0 -57 65 -57h43v-38h-284v38h23q50 0 87 47q23 30 60 110l176 384h17l208 -450q22 -49 34 -64q21 -27 51 -27h26v-38zM331 226l-88 195q-18 -43 -87 -195h175z" />
    <glyph glyph-name="b" unicode="b" horiz-adv-x="689" 
d="M649 160q0 -77 -82 -121q-72 -39 -179 -39h-362v38h42q66 0 66 66v360q0 67 -58 67h-50v37h374q92 0 151 -33q66 -37 66 -107q0 -49 -46 -85q-39 -31 -91 -42q66 -13 111 -44q58 -40 58 -97zM480 426q0 60 -31 84q-23 19 -74 19h-123v-213h146q37 0 59.5 28.5t22.5 81.5z
M502 162q0 116 -104 116h-146v-240h127q53 0 85 28q38 32 38 96z" />
    <glyph glyph-name="c" unicode="c" horiz-adv-x="637" 
d="M592 224q-7 -107 -83 -169.5t-192 -62.5q-118 0 -200 84.5t-82 208.5q0 123 83.5 206.5t204.5 83.5q99 0 172 -64q25 22 54 49h33v-238h-31q-22 89 -72 145q-61 68 -150 68q-69 0 -102 -43q-45 -59 -45 -207q0 -137 37 -193t126 -56q84 0 140.5 54t60.5 134h46z" />
    <glyph glyph-name="d" unicode="d" horiz-adv-x="700" 
d="M665 285q0 -119 -77.5 -202t-187.5 -83h-374v38h42q66 0 66 66v360q0 67 -58 67h-50v37h352q118 0 199 -72q88 -79 88 -211zM521 288q0 146 -46 199q-37 42 -128 42h-95v-491h126q77 0 110 58t33 192z" />
    <glyph glyph-name="e" unicode="e" horiz-adv-x="679" 
d="M619 0h-593v38h42q66 0 66 66v360q0 67 -58 67h-50v37h584v-211h-38q-10 102 -51.5 138t-141.5 36h-127v-220h37q49 0 79.5 28t30.5 80v21h40v-314h-40v20q0 56 -30 91.5t-80 35.5h-37v-235h120q90 0 133 26q73 44 76 173h38v-237z" />
    <glyph glyph-name="f" unicode="f" horiz-adv-x="632" 
d="M597 322h-39q-18 209 -189 209h-117v-220h30q51 0 82 23q35 27 35 77v31h40v-319h-40v31q0 56 -32 87.5t-85 31.5h-30v-171q0 -64 71 -64h48v-38h-345v38h42q66 0 66 66v360q0 67 -58 67h-50v37h571v-246z" />
    <glyph glyph-name="g" unicode="g" horiz-adv-x="681" 
d="M666 247h-31q-54 0 -54 -42v-205h-25q-11 36 -45 36q-18 0 -79 -22t-101 -22q-138 0 -219 85q-77 80 -77 208q0 122 86 206t208 84q98 0 167 -57q18 17 54 50h28v-215h-29q-17 70 -70 122q-62 60 -144 60q-71 0 -107 -44q-47 -59 -47 -206q0 -139 34 -196t119 -57
q73 0 110 40q29 32 29 80v44q0 27 -6 37q-9 14 -34 14h-61v37h294v-37z" />
    <glyph glyph-name="h" unicode="h" horiz-adv-x="771" 
d="M745 0h-329v38h30q73 0 73 65v167h-268v-166q0 -30 20.5 -48t55.5 -18h36v-38h-337v38h41q67 0 67 66v360q0 67 -58 67h-50v37h329v-37h-40q-64 0 -64 -65v-157h268v155q0 38 -16.5 52.5t-65.5 14.5h-20v37h327v-37h-38q-69 0 -69 -64v-363q0 -66 73 -66h35v-38z" />
    <glyph glyph-name="i" unicode="i" horiz-adv-x="385" 
d="M359 0h-333v38h40q67 0 67 66v360q0 67 -58 67h-49v37h333v-37h-44q-65 0 -65 -65v-362q0 -30 20.5 -48t55.5 -18h33v-38z" />
    <glyph glyph-name="j" unicode="j" horiz-adv-x="500" 
d="M480 529h-46q-36 0 -49 -14.5t-13 -48.5v-285q0 -189 -201 -189q-66 0 -115 31q-56 35 -56 93q0 38 22.5 62t57.5 24q71 0 71 -71q0 -22 -18 -40t-18 -28q0 -33 61 -33q46 0 61.5 29t15.5 122v282q0 66 -58 66h-59v39h344v-39z" />
    <glyph glyph-name="k" unicode="k" horiz-adv-x="733" 
d="M733 0h-329v38h49q42 0 42 25q0 16 -15 36q-14 17 -150 196q-40 -33 -87 -69v-122q0 -66 74 -66h34v-38h-325v38h41q67 0 67 66v360q0 67 -58 67h-50v37h316v-37h-36q-63 0 -63 -65v-193l180 150q34 28 34 64q0 44 -55 44h-16v37h326v-37h-31q-46 0 -92 -27
q-27 -16 -85 -64l-91 -75q124 -175 194 -263q51 -64 93 -64h33v-38z" />
    <glyph glyph-name="l" unicode="l" horiz-adv-x="617" 
d="M597 0h-571v38h42q66 0 66 66v360q0 67 -58 67h-50v37h357v-37h-68q-63 0 -63 -67v-426h83q224 0 224 260h38v-298z" />
    <glyph glyph-name="m" unicode="m" horiz-adv-x="829" 
d="M803 0h-351v38h47q73 0 73 65v338l-196 -441h-27l-178 447v-283q0 -67 17.5 -96.5t59.5 -29.5h44v-38h-272v38h38q42 0 59.5 29.5t17.5 96.5v300q0 67 -64 67h-51v37h229l162 -407q29 68 89 204t89 203h214v-37h-46q-67 0 -67 -64v-363q0 -66 73 -66h40v-38z" />
    <glyph glyph-name="n" unicode="n" horiz-adv-x="754" 
d="M734 531h-43q-47 0 -63 -36q-12 -27 -12 -91v-412h-26l-421 458v-286q0 -67 17 -95q18 -31 65 -31h40v-38h-271v38h39q42 0 59 30t17 96v299q0 68 -65 68h-50v36h212l349 -383v220q0 127 -74 127h-48v36h275v-36z" />
    <glyph glyph-name="o" unicode="o" horiz-adv-x="654" 
d="M619 285q0 -122 -85.5 -207.5t-210.5 -85.5q-120 0 -204 87t-84 206q0 115 84.5 202.5t204.5 87.5q123 0 211 -88q84 -86 84 -202zM475 284q0 136 -34.5 193.5t-116.5 57.5q-79 0 -112.5 -58t-33.5 -192t32 -192q33 -61 114 -61t116 59.5t35 192.5z" />
    <glyph glyph-name="p" unicode="p" horiz-adv-x="638" 
d="M623 415q0 -142 -213 -142h-158v-171q0 -64 71 -64h40v-38h-337v38h42q66 0 66 66v360q0 67 -58 67h-50v37h365q94 0 156 -33q76 -40 76 -120zM480 423q0 60 -25 84t-76 24h-127v-220h144q84 0 84 112z" />
    <glyph glyph-name="q" unicode="q" horiz-adv-x="688" 
d="M663 80q-2 -140 -101 -140q-34 0 -64 25q-18 15 -49 53q-60 -26 -126 -26q-122 0 -205 86.5t-83 206.5q0 117 84.5 204t204.5 87q127 0 211 -83t84 -208q0 -120 -85 -207q53 -49 71 -49q24 0 29 54h24zM476 279q0 147 -34 202t-118 55q-146 0 -146 -251q0 -137 32.5 -195
t113.5 -58q52 0 91 29q-29 35 -37 42q-21 20 -38 20q-42 0 -45 -56h-28v28q0 47 28.5 77t74.5 30q47 0 95 -48q11 52 11 125z" />
    <glyph glyph-name="r" unicode="r" horiz-adv-x="711" 
d="M711 0h-207l-110 221q-22 44 -39.5 58t-51.5 14h-52v-191q0 -64 71 -64h44v-38h-340v38h41q67 0 67 66v360q0 67 -58 67h-50v37h357q245 0 245 -142q0 -58 -62 -92.5t-163 -36.5q32 -25 73 -25q17 0 32 4q9 -20 25 -56q37 -86 60 -119q42 -62 93 -62h25v-39zM490 430
q0 59 -33 82q-26 19 -82 19h-124v-201h87q87 0 122 26q30 23 30 74z" />
    <glyph glyph-name="s" unicode="s" horiz-adv-x="625" 
d="M585 168q0 -81 -82 -131q-73 -45 -167 -45q-124 0 -195 46q-21 -12 -61 -38h-30v228h34q34 -198 252 -198q52 0 91 20q46 24 46 64q0 51 -53 79q-32 17 -121 37q-112 26 -158 52q-75 42 -75 121q0 72 62 121.5t154 49.5q105 0 174 -43q18 10 60 35h27v-214h-35
q-26 183 -224 183q-51 0 -87 -18q-40 -21 -40 -57q0 -43 53 -66q24 -10 121 -33q124 -28 172 -56q82 -47 82 -137z" />
    <glyph glyph-name="t" unicode="t" horiz-adv-x="619" 
d="M589 307h-40q0 224 -166 224h-16v-427q0 -66 71 -66h43v-38h-343v38h45q66 0 66 66v427h-16q-165 0 -165 -224h-38v261h559v-261z" />
    <glyph glyph-name="u" unicode="u" horiz-adv-x="718" 
d="M718 529h-29q-83 0 -83 -125v-178q0 -115 -49 -170q-59 -65 -201 -65q-243 0 -243 163v310q0 65 -64 65h-44v39h316v-39h-27q-29 0 -46.5 -18t-17.5 -49v-256q0 -99 43 -140q36 -34 108 -34q186 0 186 184v188q0 125 -89 125h-27v39h267v-39z" />
    <glyph glyph-name="v" unicode="v" horiz-adv-x="564" 
d="M634 529h-18q-93 0 -165 -166q-56 -125 -164 -372h-20q-59 141 -192 448q-40 90 -104 90h-21v39h321v-39h-16q-62 0 -62 -48q0 -18 9 -40l117 -286q32 75 97 227q19 46 19 79q0 68 -84 68h-19v39h302v-39z" />
    <glyph glyph-name="w" unicode="w" horiz-adv-x="789" 
d="M849 529h-20q-45 0 -76 -37q-26 -31 -53 -104l-146 -397h-26l-131 407l-148 -407l-28 1l-150 449q-30 88 -86 88h-25v39h303v-39h-17q-59 0 -59 -45q0 -13 5 -28l87 -270l96 289q0 54 -50 54h-24v39h263v-39h-20q-50 0 -50 -44q0 -18 9 -49q29 -88 80 -251q25 71 77 212
q17 47 17 78q0 54 -54 54h-28v39h254v-39z" />
    <glyph glyph-name="x" unicode="x" horiz-adv-x="709" 
d="M709 0h-338v38h19q56 0 56 38q0 27 -29 67l-76 108q-19 -25 -63 -84q-35 -47 -35 -82q0 -47 65 -47h22v-38h-330v38h25q51 0 102 36q45 32 111 110q45 52 78 97q-29 42 -138 181q-53 69 -123 69h-29v37h348v-37h-17q-54 0 -54 -33q0 -14 12 -30l78 -102l57 80
q22 30 22 51q0 34 -54 34h-22v37h307v-37h-31q-93 0 -181 -105q-30 -34 -77 -92q32 -40 162 -217q32 -43 52 -59q27 -20 60 -20h21v-38z" />
    <glyph glyph-name="y" unicode="y" horiz-adv-x="666" 
d="M686 531h-24q-46 0 -84 -31q-29 -23 -81 -90q-61 -81 -107 -143v-163q0 -66 74 -66h39v-38h-350v38h56q66 0 66 66v156l-142 190q-36 49 -58 63q-26 18 -68 18h-22v37h361v-37h-17q-79 0 -79 -35q0 -13 12 -31l110 -157q33 41 95 124q27 36 27 64q0 35 -44 35h-50v37h286
v-37z" />
    <glyph glyph-name="z" unicode="z" horiz-adv-x="603" 
d="M558 0h-528v28l378 503h-101q-181 0 -210 -224h-37v261h496v-30l-378 -500h106q102 0 155 38q67 48 83 171h36v-247z" />
    <glyph glyph-name="braceleft" unicode="{" horiz-adv-x="369" 
d="M339 -116h-15q-110 0 -161 34q-55 37 -55 124v182q0 74 -10 95q-14 33 -68 33v30q53 0 68 34q10 22 10 92v181q0 91 60 127q52 31 171 31v-31q-18 -1 -21 -1h-7q-66 0 -84 -34q-9 -19 -9 -82v-192q0 -60 -25 -92q-28 -34 -94 -47q71 -11 97 -48q22 -30 22 -96v-191
q0 -64 16 -90q18 -30 64 -30q28 0 41 1v-30z" />
    <glyph glyph-name="bar" unicode="|" horiz-adv-x="351" 
d="M201 -1h-51v756h51v-756z" />
    <glyph glyph-name="braceright" unicode="}" horiz-adv-x="369" 
d="M339 354l-5 -2q-51 0 -64 -33q-9 -21 -9 -95v-182q0 -87 -56 -124q-51 -34 -161 -34h-14v30q13 -1 40 -1q46 0 65 30q16 26 16 90v191q0 66 21 96q26 37 98 48q-67 13 -93 46t-26 93v192q0 63 -9 82q-18 34 -84 34h-7q-4 0 -21 1v31q118 0 170 -31q61 -36 61 -127v-181
q0 -70 10 -92q15 -34 68 -34v-28z" />
    <glyph glyph-name="asciitilde" unicode="~" horiz-adv-x="700" 
d="M489 923q0 -128 -74 -128q-22 0 -63 28t-59 28q-29 0 -29 -50h-28q0 134 75 134q27 0 83 -35q36 -22 44 -22q26 0 26 48h20z" />
    <glyph glyph-name="uni00A0" unicode="&#xa0;" horiz-adv-x="240" 
 />
    <glyph glyph-name="exclamdown" unicode="&#xa1;" horiz-adv-x="305" 
d="M230 688q0 -32 -23 -55t-55 -23t-54.5 23t-22.5 55t22.5 54.5t54.5 22.5t55 -23t23 -54zM219 93q0 -47 -18.5 -75.5t-51.5 -28.5q-69 0 -69 108q0 65 23 182q29 145 29 222v33h38v-33q0 -69 24.5 -204.5t24.5 -203.5z" />
    <glyph glyph-name="cent" unicode="&#xa2;" horiz-adv-x="438" 
d="M418 426q-5 -87 -54 -136q-44 -44 -107 -47v-139h-38v139q-90 6 -146 75q-53 66 -53 160t57.5 165t141.5 74v84h38v-85q52 -6 99 -49q1 2 29 49h27v-203h-30q-27 159 -125 161v-385q52 2 85 38.5t36 98.5h40zM219 290v385q-42 -5 -68 -52q-28 -52 -28 -141
q0 -85 25.5 -138t70.5 -54z" />
    <glyph glyph-name="sterling" unicode="&#xa3;" horiz-adv-x="606" 
d="M601 224q0 -235 -146 -235q-39 0 -73.5 17t-92.5 63q-72 -76 -155 -76q-46 0 -75 23.5t-29 64.5q0 44 34 73t88 29q68 0 128 -38q16 29 16 79q0 70 -72 145h-192v42h143q-94 80 -94 174q0 82 72 132q68 48 166 48q94 0 152.5 -47t58.5 -129q0 -45 -20.5 -71t-54.5 -26
q-31 0 -52 20q-24 22 -24 58q0 29 20 51t47 22q16 0 30 -7q-4 39 -47 65t-103 26q-56 0 -91.5 -29.5t-35.5 -74.5q0 -36 30 -76q17 -23 62 -67q26 -24 65 -69h169v-42h-143q26 -46 26 -89q0 -85 -76 -163q52 -30 108 -30q60 0 94.5 42t34.5 120h32v-25zM257 102
q-39 39 -104 39q-37 0 -59 -16.5t-22 -41.5q0 -53 65 -53q66 0 120 72z" />
    <glyph glyph-name="currency" unicode="&#xa4;" horiz-adv-x="418" 
d="M418 426q-7 -91 -56 -138t-128 -47q-70 0 -123 56.5t-65 141.5h-46v37h44v6q0 28 3 47h-47v37h56q20 69 69.5 112t111.5 43t116 -49q12 12 35 37h24v-178h-24q-33 159 -147 159q-77 0 -91 -124h118v-37h-121v-47v-6h121v-37h-121q4 -88 28 -125.5t77 -37.5q56 0 93 41.5
t41 108.5h32z" />
    <glyph glyph-name="yen" unicode="&#xa5;" horiz-adv-x="805" 
d="M825 716h-23q-56 0 -105 -43q-36 -33 -101 -124q-41 -58 -116 -166h174v-38h-191v-69h191v-38h-191v-103q0 -43 25.5 -69.5t69.5 -26.5h44v-39h-415v39h65q85 0 85 96v103h-184v38h184v69h-184v38h161q-68 106 -148 223q-45 66 -73 86q-32 24 -86 24h-22v39h425v-39h-53
q-29 0 -47.5 -14t-18.5 -36q0 -16 11 -34q15 -27 145 -231l138 204q21 31 21 59q0 52 -64 52h-57v39h340v-39z" />
    <glyph glyph-name="brokenbar" unicode="&#xa6;" horiz-adv-x="351" 
d="M201 447h-51v308h51v-308zM201 0h-51v338h51v-338z" />
    <glyph glyph-name="section" unicode="&#xa7;" horiz-adv-x="425" 
d="M395 202q0 -82 -64 -146q-67 -67 -158 -67q-40 0 -74 14q-43 18 -43 50q0 39 37 39q28 0 53 -27.5t52 -27.5q60 0 60 54q0 63 -59 150l-110 150q-59 89 -59 158q0 95 70 154q66 58 166 58q43 0 77 -15q39 -16 39 -42q0 -18 -11.5 -29.5t-27.5 -11.5q-25 0 -55 28t-53 28
q-26 0 -41 -19.5t-15 -43.5q0 -54 31 -107q18 -32 68 -92q57 -69 80 -111q37 -68 37 -144zM349 202q0 73 -57 156q-53 70 -105 141q-56 86 -54 167q-24 -15 -39.5 -48t-15.5 -68q0 -57 59 -143q54 -75 109 -150q58 -90 58 -157v-13q45 50 45 115z" />
    <glyph glyph-name="dieresis" unicode="&#xa8;" horiz-adv-x="539" 
d="M405 689q0 -26 -18 -44t-44 -18t-44 18t-18 44t18 44t44 18t44 -18t18 -44zM249 689q0 -26 -18 -44t-44 -18t-44 18t-18 44t18 44t44 18t44 -18t18 -44z" />
    <glyph glyph-name="copyright" unicode="&#xa9;" horiz-adv-x="801" 
d="M781 377q0 -161 -111.5 -274.5t-268.5 -113.5q-158 0 -269.5 113.5t-111.5 274.5t111.5 274.5t269.5 113.5q157 0 268.5 -113.5t111.5 -274.5zM734 377q0 143 -98 244.5t-235 101.5q-138 0 -236 -101.5t-98 -244.5q0 -144 98 -245t236 -101t235.5 101t97.5 245zM618 309
q-9 -95 -66.5 -148.5t-140.5 -53.5q-104 0 -182 78t-78 186q0 109 74.5 187t178.5 78q84 0 144 -54l27 27h32v-195h-34q-12 82 -52 130q-44 54 -117 54q-51 0 -84 -52q-36 -60 -36 -172q0 -118 29.5 -170.5t99.5 -52.5q74 0 115 45q38 42 43 114h41z" />
    <glyph glyph-name="ordfeminine" unicode="&#xaa;" horiz-adv-x="554" 
d="M528 336h-242v29h28q45 0 45 31q0 10 -22 61q-3 7 -8 18h-147q-25 -51 -25 -68q0 -42 47 -42h32v-29h-210v29h18q34 0 61 35q19 23 45 80l130 282h14l152 -331q30 -66 62 -66h20v-29zM528 228h-502v41h502v-41zM319 503l-62 139q-11 -24 -31.5 -70t-31.5 -69h125z" />
    <glyph glyph-name="guillemotleft" unicode="&#xab;" horiz-adv-x="347" 
d="M312 151h-22l-114 232l114 230h22l-53 -230zM172 151h-21l-116 232l116 230h21l-52 -230q18 -78 52 -232z" />
    <glyph glyph-name="uni00AD" unicode="&#xad;" horiz-adv-x="474" 
d="M414 361h-353v63h353v-63z" />
    <glyph glyph-name="registered" unicode="&#xae;" horiz-adv-x="563" 
d="M548 498q0 -110 -78.5 -188t-188.5 -78t-188 78t-78 188t78 188.5t188 78.5t188.5 -78.5t78.5 -188.5zM508 498q0 93 -66.5 160t-160.5 67t-160 -66.5t-66 -160.5t66 -160t160 -66t160.5 66t66.5 160zM438 366h-82q-15 34 -49 109q-14 32 -34 32h-31v-90q0 -27 29 -27h19
v-24h-144v24h21q22 0 22 27v180q0 27 -19 27h-24v23h150q113 0 113 -65q0 -70 -90 -72q14 -16 37 -10q8 -24 30 -70q20 -40 52 -40v-24zM350 582q0 42 -54 42h-54v-93h54q54 0 54 51z" />
    <glyph glyph-name="macron" unicode="&#xaf;" horiz-adv-x="254" 
d="M276 828h-273v66h273v-66z" />
    <glyph glyph-name="degree" unicode="&#xb0;" horiz-adv-x="291" 
d="M266 628q0 -50 -35 -85t-86 -35q-50 0 -85 35t-35 85q0 51 35 86t85 35q51 0 86 -35t35 -86zM213 628q0 29 -20 48.5t-48 19.5q-27 0 -46.5 -19.5t-19.5 -48.5q0 -27 19.5 -46.5t46.5 -19.5q28 0 48 19.5t20 46.5z" />
    <glyph glyph-name="uni00B2" unicode="&#xb2;" horiz-adv-x="401" 
d="M381 274h-361v25q11 10 40 38q70 68 104 103q48 49 67 80q31 50 31 105q0 107 -83 107q-22 0 -46 -9t-24 -19q0 -2 11 -4q39 -11 39 -65q0 -28 -17 -48t-43 -20q-59 0 -59 69q0 58 54 94q48 32 109 32q78 0 123 -37.5t45 -106.5q0 -96 -149 -190l1 1q-5 -3 -12 -8
q-27 -16 -76 -52h141q46 0 58 7q17 9 17 45v25h30v-172z" />
    <glyph glyph-name="uni00B3" unicode="&#xb3;" horiz-adv-x="406" 
d="M386 414q0 -70 -59 -110q-54 -37 -136 -37q-66 0 -114 28q-57 32 -57 87q0 29 18 48.5t45 19.5q26 0 43.5 -17.5t17.5 -43.5q0 -22 -15 -43q-10 -13 -10 -17q0 -30 64 -30q96 0 96 122q0 64 -31 89q-25 21 -80 21h-40v28h63q83 0 83 91q0 83 -82 83q-27 0 -49.5 -8.5
t-22.5 -20.5q0 -5 3 -7q26 -17 26 -52q0 -56 -55 -56q-23 0 -38.5 18t-15.5 44q0 53 50 84q44 27 102 27q71 0 122 -25q62 -31 62 -87q0 -43 -35 -73q-28 -25 -66 -33q41 -12 73 -44q38 -39 38 -86z" />
    <glyph glyph-name="acute" unicode="&#xb4;" horiz-adv-x="531" 
d="M402 831q0 -25 -18 -50q-23 -34 -99 -147h-23q44 99 59 188q9 48 48 48q33 0 33 -39z" />
    <glyph glyph-name="paragraph" unicode="&#xb6;" horiz-adv-x="710" 
d="M635 0h-174v720h-87v-720h-175v31q109 0 109 63v288q-95 2 -159 47q-74 53 -74 148q0 93 74 139q63 39 173 39h313v-32q-107 0 -107 -59v-570q0 -40 37 -54q22 -9 70 -9v-31zM308 418v302q-142 -3 -142 -145q0 -78 47 -120q39 -36 95 -37z" />
    <glyph glyph-name="periodcentered" unicode="&#xb7;" horiz-adv-x="175" 
d="M157 390q0 -34 -19 -58t-50 -24t-51 24.5t-20 57.5q0 32 19.5 54.5t50.5 22.5q29 0 49.5 -22.5t20.5 -54.5z" />
    <glyph glyph-name="cedilla" unicode="&#xb8;" horiz-adv-x="733" 
d="M490 -133q0 -33 -28 -55.5t-62 -22.5q-41 0 -79 26l12 28q16 -15 36 -15q41 0 41 32q0 25 -32.5 43.5t-32.5 63.5v26h34v-15q0 -35 47 -41q64 -8 64 -70z" />
    <glyph glyph-name="uni00B9" unicode="&#xb9;" horiz-adv-x="337" 
d="M317 264h-279v30h42q57 0 57 59v225q0 52 -28 67q-18 9 -74 9h-15v30h15q58 0 105.5 18.5t62.5 52.5h23v-402q0 -59 48 -59h43v-30z" />
    <glyph glyph-name="ordmasculine" unicode="&#xba;" horiz-adv-x="482" 
d="M456 545q0 -90 -62.5 -152.5t-155.5 -62.5q-88 0 -150 63.5t-62 151.5q0 85 62 149.5t150 64.5q92 0 155 -64t63 -150zM448 229h-416v41h416v-41zM349 545q0 99 -25.5 141t-85.5 42q-56 0 -80.5 -42.5t-24.5 -140.5q0 -97 24 -140.5t81 -43.5q59 0 85 43.5t26 140.5z" />
    <glyph glyph-name="guillemotright" unicode="&#xbb;" horiz-adv-x="347" 
d="M312 383l-116 -232h-21l52 232q-8 37 -26 115t-26 115h21zM171 383l-114 -232h-22l54 232l-54 230h22z" />
    <glyph glyph-name="onequarter" unicode="&#xbc;" horiz-adv-x="793" 
d="M773 130h-88v-41q0 -46 14 -54q8 -5 26 -5h42v-30h-244v30h36q28 0 35 11.5t7 47.5v41h-208v25l272 339h20v-304h88v-60zM548 755l-235 -755h-49l236 755h48zM317 264h-279v30h42q58 0 58 59v225q0 51 -29 67q-18 9 -73 9h-16v30h16q57 0 104.5 18.5t62.5 52.5h24v-402
q0 -59 47 -59h43v-30zM601 190v172q-46 -57 -141 -172h141z" />
    <glyph glyph-name="onehalf" unicode="&#xbd;" horiz-adv-x="826" 
d="M806 0h-360v25q70 51 152 150q95 115 95 173q0 55 -26 84q-24 26 -62 26q-57 0 -70 -28q52 -10 52 -71q0 -28 -17 -47t-43 -19q-62 0 -62 69q0 58 54 94q48 32 109 32q79 0 124 -37.5t45 -106.5q0 -90 -144 -187q-26 -18 -93 -62h141q46 0 58 7q18 9 18 44v26h29v-172z
M549 755l-236 -755h-48l235 755h49zM317 264h-279v30h43q57 0 57 59v225q0 51 -29 67q-18 9 -73 9h-16v30h16q57 0 104.5 18.5t62.5 52.5h24v-402q0 -59 47 -59h43v-30z" />
    <glyph glyph-name="threequarters" unicode="&#xbe;" horiz-adv-x="833" 
d="M813 130h-87v-41q0 -46 14 -54q8 -5 25 -5h43v-30h-245v30h37q28 0 35 11.5t7 47.5v41h-208v25l272 339h20v-304h87v-60zM590 755l-235 -755h-49l236 755h48zM386 414q0 -70 -59 -110q-54 -37 -136 -37q-66 0 -114 28q-57 32 -57 87q0 29 17.5 47.5t43.5 18.5
q28 0 45.5 -16.5t17.5 -42.5q0 -22 -15 -43q-10 -13 -10 -17q0 -30 64 -30q96 0 96 122q0 64 -31 89q-25 21 -79 21h-41v28h63q84 0 84 91q0 83 -78 83q-28 0 -52.5 -8.5t-24.5 -20.5q0 -5 3 -7q26 -17 26 -52q0 -26 -16 -41t-39 -15t-38.5 18t-15.5 44q0 53 53 84
q45 27 104 27q74 0 122 -25q57 -30 57 -87q0 -43 -35 -73q-28 -25 -65 -33q40 -14 71 -45q39 -38 39 -85zM642 190v172q-46 -57 -141 -172h141z" />
    <glyph glyph-name="questiondown" unicode="&#xbf;" horiz-adv-x="517" 
d="M363 688q0 -32 -23 -55t-54 -23q-32 0 -55 23t-23 55q0 31 23 54t55 23t54.5 -22.5t22.5 -54.5zM491 180q0 -81 -68 -136t-155 -55q-110 0 -176 59t-66 164q0 103 75 168q70 59 165 59h2v91h42v-225h-32q-54 0 -96 -33q-46 -38 -46 -100q0 -68 37 -107t95 -39
q45 0 83.5 20t53.5 51q-36 2 -61 30.5t-24 67.5q1 37 24 62t59 25q39 0 63.5 -29t24.5 -73z" />
    <glyph glyph-name="Agrave" unicode="&#xc0;" 
d="M754 0h-381v39h38q83 0 83 64q0 16 -21 70q-17 40 -33 81h-264q-44 -106 -44 -132q0 -83 84 -83h47v-39h-338v39h23q57 0 106 66q34 47 78 151l215 513h20l250 -605q27 -63 44 -87q28 -38 65 -38h28v-39zM424 294l-115 292l-118 -292h233zM361 827h-24q-51 80 -98 147
q-18 25 -18 50q0 39 33 39q37 0 47 -48q18 -86 60 -188z" />
    <glyph glyph-name="Aacute" unicode="&#xc1;" 
d="M754 0h-381v39h38q83 0 83 64q0 16 -21 70q-17 40 -33 81h-264q-44 -106 -44 -132q0 -83 84 -83h47v-39h-338v39h23q57 0 106 66q34 47 78 151l215 513h20l250 -605q27 -63 44 -87q28 -38 65 -38h28v-39zM424 294l-115 292l-118 -292h233zM496 1024q0 -26 -17 -51
q-23 -33 -99 -146h-23q44 99 59 187q9 49 48 49q32 0 32 -39z" />
    <glyph glyph-name="Acircumflex" unicode="&#xc2;" 
d="M754 0h-381v39h38q83 0 83 64q0 16 -21 70q-17 40 -33 81h-264q-44 -106 -44 -132q0 -83 84 -83h47v-39h-338v39h23q57 0 106 66q34 47 78 151l215 513h20l250 -605q27 -63 44 -87q28 -38 65 -38h28v-39zM424 294l-115 292l-118 -292h233zM479 818l-16 -20l-113 81
q-41 -32 -112 -81l-18 19q74 89 93 121q18 -3 41 -3t36 3q26 -41 89 -120z" />
    <glyph glyph-name="Atilde" unicode="&#xc3;" 
d="M754 0h-381v39h38q83 0 83 64q0 16 -21 70q-17 40 -33 81h-264q-44 -106 -44 -132q0 -83 84 -83h47v-39h-338v39h23q57 0 106 66q34 47 78 151l215 513h20l250 -605q27 -63 44 -87q28 -38 65 -38h28v-39zM424 294l-115 292l-118 -292h233zM489 954q0 -128 -74 -128
q-22 0 -63 28t-59 28q-29 0 -29 -50h-28q0 133 75 133q27 0 83 -34q36 -22 44 -22q26 0 26 47h20z" />
    <glyph glyph-name="Adieresis" unicode="&#xc4;" 
d="M754 0h-381v39h38q83 0 83 64q0 16 -21 70q-17 40 -33 81h-264q-44 -106 -44 -132q0 -83 84 -83h47v-39h-338v39h23q57 0 106 66q34 47 78 151l215 513h20l250 -605q27 -63 44 -87q28 -38 65 -38h28v-39zM424 294l-115 292l-118 -292h233zM492 871q0 -26 -18.5 -44
t-43.5 -18q-26 0 -44 18t-18 44q0 25 18 43.5t44 18.5q25 0 43.5 -18.5t18.5 -43.5zM336 871q0 -26 -18.5 -44t-43.5 -18q-26 0 -44 18t-18 44q0 25 18 43.5t44 18.5q25 0 43.5 -18.5t18.5 -43.5z" />
    <glyph glyph-name="Aring" unicode="&#xc5;" 
d="M429 882q0 -29 -20.5 -49.5t-49.5 -20.5q-28 0 -48.5 20.5t-20.5 49.5q0 28 20.5 48.5t48.5 20.5q29 0 49.5 -20.5t20.5 -48.5zM754 0h-381v39h39q82 0 82 64q0 16 -21 70q-17 40 -33 81h-264q-44 -106 -44 -132q0 -83 84 -83h47v-39h-338v39h23q57 0 106 66
q34 47 78 151l215 513h20l250 -605q27 -63 44 -87q28 -38 65 -38h28v-39zM401 882q0 18 -12 30t-30 12q-17 0 -29 -12t-12 -30t12 -30t29 -12q18 0 30 12t12 30zM424 294l-115 292l-118 -292h233z" />
    <glyph glyph-name="AE" unicode="&#xc6;" horiz-adv-x="1175" 
d="M1100 0h-718v39h22q54 0 78 15q34 21 34 81v119h-273q-56 -74 -95 -134q-14 -22 -14 -43q0 -38 47 -38h39v-39h-320v39h33q57 0 120 57q52 48 133 160q76 106 327 460h-131v39h707v-282h-37q-12 138 -65 190.5t-175 52.5h-171v-307h62q62 0 99.5 39t37.5 111v31h40v-431
h-40v33q0 79 -37 128t-100 49h-62v-330h162q110 0 165 39q91 63 95 240h37v-318zM516 294v358q-83 -119 -248 -358h248z" />
    <glyph glyph-name="Ccedilla" unicode="&#xc7;" horiz-adv-x="737" 
d="M697 299q-13 -140 -102.5 -225t-228.5 -85q-142 0 -241 112.5t-99 276.5q0 165 101 276t247 111q119 0 210 -89q23 22 70 69h33v-322h-30q-28 123 -92 203q-78 97 -189 97q-87 0 -130 -61q-57 -80 -57 -283q0 -188 47 -265.5t159 -77.5q106 0 179 77t79 186h44zM490 -133
q0 -33 -28 -55.5t-62 -22.5q-41 0 -79 26l12 28q16 -15 36 -15q41 0 41 32q0 25 -32.5 43.5t-32.5 63.5v26h34v-15q0 -35 47 -41q64 -8 64 -70z" />
    <glyph glyph-name="Egrave" unicode="&#xc8;" horiz-adv-x="818" 
d="M743 0h-717v39h47q85 0 85 96v485q0 96 -76 96h-56v39h705v-282h-36q-12 138 -65 190.5t-175 52.5h-170v-307h61q62 0 100 39t38 111v31h40v-431h-40v33q0 78 -37.5 127.5t-100.5 49.5h-61v-330h161q110 0 165 39q92 63 95 240h37v-318zM439 818h-24q-51 80 -98 147
q-18 25 -18 51q0 39 33 39q37 0 47 -49q18 -86 60 -188z" />
    <glyph glyph-name="Eacute" unicode="&#xc9;" horiz-adv-x="818" 
d="M743 0h-717v39h47q85 0 85 96v485q0 96 -76 96h-56v39h705v-282h-36q-12 138 -65 190.5t-175 52.5h-170v-307h61q62 0 100 39t38 111v31h40v-431h-40v33q0 78 -37.5 127.5t-100.5 49.5h-61v-330h161q110 0 165 39q92 63 95 240h37v-318zM538 979q0 -25 -18 -50
q-23 -33 -98 -147h-24q44 99 60 188q8 49 47 49q33 0 33 -40z" />
    <glyph glyph-name="Ecircumflex" unicode="&#xca;" horiz-adv-x="818" 
d="M743 0h-717v39h47q85 0 85 96v485q0 96 -76 96h-56v39h705v-282h-36q-12 138 -65 190.5t-175 52.5h-170v-307h61q62 0 100 39t38 111v31h40v-431h-40v33q0 78 -37.5 127.5t-100.5 49.5h-61v-330h161q110 0 165 39q92 63 95 240h37v-318zM556 847l-16 -20l-113 81
q-42 -32 -112 -81l-18 19q74 88 92 121q19 -3 42 -3q22 0 36 3q26 -41 89 -120z" />
    <glyph glyph-name="Edieresis" unicode="&#xcb;" horiz-adv-x="818" 
d="M743 0h-717v39h47q85 0 85 96v485q0 96 -76 96h-56v39h705v-282h-36q-12 138 -65 190.5t-175 52.5h-170v-307h61q62 0 100 39t38 111v31h40v-431h-40v33q0 78 -37.5 127.5t-100.5 49.5h-61v-330h161q110 0 165 39q92 63 95 240h37v-318zM556 896q0 -26 -18 -44t-44 -18
q-25 0 -43.5 18t-18.5 44q0 25 18.5 43.5t43.5 18.5q26 0 44 -18.5t18 -43.5zM400 896q0 -26 -18 -44t-44 -18q-25 0 -43.5 18t-18.5 44q0 25 18.5 43.5t43.5 18.5q26 0 44 -18.5t18 -43.5z" />
    <glyph glyph-name="Igrave" unicode="&#xcc;" horiz-adv-x="444" 
d="M418 0h-392v39h48q85 0 85 96v485q0 96 -77 96h-56v39h392v-39h-52q-81 0 -81 -93v-488q0 -96 90 -96h43v-39zM232 816h-24q-51 80 -98 147q-18 25 -18 51q0 39 33 39q37 0 47 -49q18 -86 60 -188z" />
    <glyph glyph-name="Iacute" unicode="&#xcd;" horiz-adv-x="444" 
d="M418 0h-392v39h48q85 0 85 96v485q0 96 -77 96h-56v39h392v-39h-52q-81 0 -81 -93v-488q0 -96 90 -96h43v-39zM350 1017q0 -26 -18 -51q-23 -33 -99 -147h-23q44 100 59 188q9 49 48 49q33 0 33 -39z" />
    <glyph glyph-name="Icircumflex" unicode="&#xce;" horiz-adv-x="444" 
d="M418 0h-392v39h48q85 0 85 96v485q0 96 -77 96h-56v39h392v-39h-52q-81 0 -81 -93v-488q0 -96 90 -96h43v-39zM353 837l-16 -21l-113 81q-41 -31 -112 -81l-18 20q74 88 93 121q18 -3 41 -3t36 3q26 -41 89 -120z" />
    <glyph glyph-name="Idieresis" unicode="&#xcf;" horiz-adv-x="444" 
d="M418 0h-392v39h48q85 0 85 96v485q0 96 -77 96h-56v39h392v-39h-52q-81 0 -81 -93v-488q0 -96 90 -96h43v-39zM370 885q0 -26 -18.5 -44t-43.5 -18q-26 0 -44 18t-18 44t18 44t44 18q25 0 43.5 -18t18.5 -44zM214 885q0 -26 -18.5 -44t-43.5 -18q-26 0 -44 18t-18 44
t18 44t44 18q25 0 43.5 -18t18.5 -44z" />
    <glyph glyph-name="Eth" unicode="&#xd0;" horiz-adv-x="821" 
d="M799 379q0 -160 -99.5 -269.5t-247.5 -109.5h-426v39h48q85 0 85 96v258h-132v40h132v187q0 96 -76 96h-57v39h426q144 0 241 -95q106 -104 106 -281zM636 382q0 202 -57 275q-45 58 -156 58h-138v-282h161v-40h-161v-354h138q110 0 157 64q56 77 56 279z" />
    <glyph glyph-name="Ntilde" unicode="&#xd1;" horiz-adv-x="903" 
d="M898 716h-61q-47 0 -66 -49q-16 -41 -16 -128v-549l-30 10l-528 625v-409q0 -177 90 -177h57v-39h-322v39h53q86 0 86 177v404q0 96 -83 96h-56v39h252l445 -526v310q0 78 -8 111q-17 64 -72 64h-66v41h325v-39zM574 923q0 -128 -74 -128q-22 0 -63 28t-60 28
q-28 0 -28 -50h-28q0 134 75 134q27 0 83 -35q36 -22 44 -22q26 0 26 48h20z" />
    <glyph glyph-name="Ograve" unicode="&#xd2;" horiz-adv-x="748" 
d="M726 378q0 -165 -104 -277t-252 -112q-143 0 -245.5 112t-102.5 277q0 153 103.5 270t245.5 117q149 0 254 -118q101 -114 101 -269zM567 376q0 184 -46 265t-150 81q-97 0 -142 -80q-48 -83 -48 -264q0 -175 44 -258q46 -88 146 -88q196 0 196 344zM385 826h-23
q-52 80 -99 147q-17 25 -17 50q0 40 33 40q37 0 47 -49q17 -86 59 -188z" />
    <glyph glyph-name="Oacute" unicode="&#xd3;" horiz-adv-x="748" 
d="M726 378q0 -165 -104 -277t-252 -112q-143 0 -245.5 112t-102.5 277q0 153 103.5 270t245.5 117q149 0 254 -118q101 -114 101 -269zM567 376q0 184 -46 265t-150 81q-97 0 -142 -80q-48 -83 -48 -264q0 -175 44 -258q46 -88 146 -88q196 0 196 344zM518 1022
q0 -25 -17 -51q-24 -33 -99 -146h-23q43 99 59 187q9 49 47 49q33 0 33 -39z" />
    <glyph glyph-name="Ocircumflex" unicode="&#xd4;" horiz-adv-x="748" 
d="M726 378q0 -165 -104 -277t-252 -112q-143 0 -245.5 112t-102.5 277q0 153 103.5 270t245.5 117q149 0 254 -118q101 -114 101 -269zM567 376q0 184 -46 265t-150 81q-97 0 -142 -80q-48 -83 -48 -264q0 -175 44 -258q46 -88 146 -88q196 0 196 344zM500 833l-16 -20
l-113 80q-42 -31 -112 -80l-18 19q73 88 92 121q19 -3 42 -3q22 0 36 3q26 -41 89 -120z" />
    <glyph glyph-name="Otilde" unicode="&#xd5;" horiz-adv-x="748" 
d="M726 378q0 -165 -104 -277t-252 -112q-143 0 -245.5 112t-102.5 277q0 153 103.5 270t245.5 117q149 0 254 -118q101 -114 101 -269zM567 376q0 184 -46 265t-150 81q-97 0 -142 -80q-48 -83 -48 -264q0 -175 44 -258q46 -88 146 -88q196 0 196 344zM499 965
q0 -129 -74 -129q-22 0 -63 28t-60 28q-28 0 -28 -49h-28q0 133 75 133q27 0 83 -35q36 -21 44 -21q26 0 26 47h20z" />
    <glyph glyph-name="Odieresis" unicode="&#xd6;" horiz-adv-x="748" 
d="M726 378q0 -165 -104 -277t-252 -112q-143 0 -245.5 112t-102.5 277q0 153 103.5 270t245.5 117q149 0 254 -118q101 -114 101 -269zM567 376q0 184 -46 265t-150 81q-97 0 -142 -80q-48 -83 -48 -264q0 -175 44 -258q46 -88 146 -88q196 0 196 344zM507 879
q0 -26 -18.5 -44t-43.5 -18q-26 0 -44 18t-18 44t18 44t44 18q25 0 43.5 -18t18.5 -44zM351 879q0 -26 -18.5 -44t-43.5 -18q-26 0 -44 18t-18 44t18 44t44 18q25 0 43.5 -18t18.5 -44z" />
    <glyph glyph-name="multiply" unicode="&#xd7;" horiz-adv-x="445" 
d="M410 249l-44 -43l-144 143q-49 -49 -144 -141l-43 42l142 143q-47 47 -137 138l43 44l139 -140l139 140l45 -44l-139 -138q49 -49 143 -144z" />
    <glyph glyph-name="Oslash" unicode="&#xd8;" horiz-adv-x="749" 
d="M727 378q0 -165 -104.5 -277t-252.5 -112q-25 0 -56 5l-25 -120h-39l28 128q-111 34 -182 135q-74 105 -74 241q0 153 103.5 270t245.5 117q40 0 68 -8q3 13 8 38t8 37h38l-19 -85q111 -37 182 -140.5t71 -228.5zM567 376q0 262 -103 324q-47 -221 -141 -662q17 -6 48 -6
q196 0 196 344zM429 714q-28 8 -58 8q-97 0 -142 -80q-48 -83 -48 -264q0 -264 107 -327z" />
    <glyph glyph-name="Ugrave" unicode="&#xd9;" horiz-adv-x="889" 
d="M884 715h-30q-106 0 -106 -176v-240q0 -152 -61 -225q-71 -86 -242 -86q-122 0 -196 42q-97 54 -97 174v416q0 95 -82 95h-50v40h375v-40h-36q-36 0 -58 -26.5t-22 -70.5v-346q0 -135 58 -193q47 -47 139 -47q232 0 232 253v254q0 85 -23 127q-28 49 -93 49h-31v40h323
v-40zM495 813h-23q-52 79 -99 146q-17 26 -17 51q0 39 33 39q37 0 47 -49q17 -85 59 -187z" />
    <glyph glyph-name="Uacute" unicode="&#xda;" horiz-adv-x="889" 
d="M884 715h-30q-106 0 -106 -176v-240q0 -152 -61 -225q-71 -86 -242 -86q-122 0 -196 42q-97 54 -97 174v416q0 95 -82 95h-50v40h375v-40h-36q-36 0 -58 -26.5t-22 -70.5v-346q0 -135 58 -193q47 -47 139 -47q232 0 232 253v254q0 85 -23 127q-28 49 -93 49h-31v40h323
v-40zM618 1018q0 -25 -18 -50q-23 -34 -98 -147h-23q43 99 59 188q9 48 47 48q33 0 33 -39z" />
    <glyph glyph-name="Ucircumflex" unicode="&#xdb;" horiz-adv-x="889" 
d="M884 715h-30q-106 0 -106 -176v-240q0 -152 -61 -225q-71 -86 -242 -86q-122 0 -196 42q-97 54 -97 174v416q0 95 -82 95h-50v40h375v-40h-36q-36 0 -58 -26.5t-22 -70.5v-346q0 -135 58 -193q47 -47 139 -47q232 0 232 253v254q0 85 -23 127q-28 49 -93 49h-31v40h323
v-40zM605 839l-16 -20l-113 81q-42 -31 -112 -81l-18 19q73 89 92 121q19 -2 42 -2q22 0 36 2q26 -41 89 -120z" />
    <glyph glyph-name="Udieresis" unicode="&#xdc;" horiz-adv-x="889" 
d="M884 715h-30q-106 0 -106 -176v-240q0 -152 -61 -225q-71 -86 -242 -86q-122 0 -196 42q-97 54 -97 174v416q0 95 -82 95h-50v40h375v-40h-36q-36 0 -58 -26.5t-22 -70.5v-346q0 -135 58 -193q47 -47 139 -47q232 0 232 253v254q0 85 -23 127q-28 49 -93 49h-31v40h323
v-40zM625 865q0 -25 -18.5 -43.5t-43.5 -18.5q-26 0 -44 18.5t-18 43.5q0 26 18 44t44 18q25 0 43.5 -18t18.5 -44zM469 865q0 -25 -18.5 -43.5t-43.5 -18.5q-26 0 -44 18.5t-18 43.5q0 26 18 44t44 18q25 0 43.5 -18t18.5 -44z" />
    <glyph glyph-name="Yacute" unicode="&#xdd;" horiz-adv-x="805" 
d="M825 716h-23q-57 0 -104 -42q-36 -32 -102 -125q-18 -25 -133 -191v-223q0 -43 25.5 -69.5t69.5 -26.5h44v-39h-415v39h65q85 0 85 96v214l-171 257q-45 66 -73 86q-32 24 -86 24h-22v39h425v-39h-53q-66 0 -66 -49q0 -18 12 -39q1 -1 144 -227l118 174q36 51 36 90
q0 51 -64 51h-52v39h340v-39zM580 1029q0 -25 -18 -51q-23 -33 -99 -146h-23q44 99 59 187q9 49 48 49q33 0 33 -39z" />
    <glyph glyph-name="Thorn" unicode="&#xde;" horiz-adv-x="763" 
d="M748 399q0 -197 -280 -197h-182v-69q0 -94 89 -94h45v-39h-394v39h47q85 0 85 96v484q0 96 -75 96h-56v39h392v-39h-52q-46 0 -63.5 -22.5t-17.5 -70.5v-34h182q280 0 280 -189zM589 398q0 84 -33 119q-29 32 -93 32h-177v-308h177q65 0 93 32q33 36 33 125z" />
    <glyph glyph-name="agrave" unicode="&#xe0;" horiz-adv-x="562" 
d="M612 0h-326v38h35q65 0 65 43q0 12 -17 51q-12 29 -25 58h-205q-33 -80 -33 -95q0 -57 65 -57h43v-38h-284v38h23q50 0 87 47q23 30 60 110l176 384h17l208 -450q22 -49 34 -64q21 -27 51 -27h26v-38zM331 226l-88 195q-18 -43 -87 -195h175zM285 634h-24q-51 80 -98 147
q-18 25 -18 50q0 39 33 39q37 0 47 -48q18 -86 60 -188z" />
    <glyph glyph-name="aacute" unicode="&#xe1;" horiz-adv-x="562" 
d="M612 0h-326v38h35q65 0 65 43q0 12 -17 51q-12 29 -25 58h-205q-33 -80 -33 -95q0 -57 65 -57h43v-38h-284v38h23q50 0 87 47q23 30 60 110l176 384h17l208 -450q22 -49 34 -64q21 -27 51 -27h26v-38zM331 226l-88 195q-18 -43 -87 -195h175zM417 831q0 -25 -17 -50
q-23 -34 -99 -147h-23q44 99 59 188q9 48 48 48q32 0 32 -39z" />
    <glyph glyph-name="acircumflex" unicode="&#xe2;" horiz-adv-x="562" 
d="M612 0h-326v38h35q65 0 65 43q0 12 -17 51q-12 29 -25 58h-205q-33 -80 -33 -95q0 -57 65 -57h43v-38h-284v38h23q50 0 87 47q23 30 60 110l176 384h17l208 -450q22 -49 34 -64q21 -27 51 -27h26v-38zM331 226l-88 195q-18 -43 -87 -195h175zM407 654l-12 -16l-113 83
l-111 -83l-14 15q38 48 91 120q17 -3 38 -3t33 3q32 -48 88 -119z" />
    <glyph glyph-name="atilde" unicode="&#xe3;" horiz-adv-x="562" 
d="M612 0h-326v38h35q65 0 65 43q0 12 -17 51q-12 29 -25 58h-205q-33 -80 -33 -95q0 -57 65 -57h43v-38h-284v38h23q50 0 87 47q23 30 60 110l176 384h17l208 -450q22 -49 34 -64q21 -27 51 -27h26v-38zM331 226l-88 195q-18 -43 -87 -195h175zM404 757q0 -128 -69 -128
q-19 0 -62.5 28.5t-61.5 28.5q-34 0 -34 -50h-18q0 129 70 129q24 0 71.5 -28t57.5 -28q31 0 31 48h15z" />
    <glyph glyph-name="adieresis" unicode="&#xe4;" horiz-adv-x="562" 
d="M612 0h-326v38h35q65 0 65 43q0 12 -17 51q-12 29 -25 58h-205q-33 -80 -33 -95q0 -57 65 -57h43v-38h-284v38h23q50 0 87 47q23 30 60 110l176 384h17l208 -450q22 -49 34 -64q21 -27 51 -27h26v-38zM331 226l-88 195q-18 -43 -87 -195h175zM421 692q0 -25 -18.5 -43.5
t-43.5 -18.5q-26 0 -44 18.5t-18 43.5q0 26 18 44t44 18q25 0 43.5 -18t18.5 -44zM265 692q0 -25 -18.5 -43.5t-43.5 -18.5q-26 0 -44 18.5t-18 43.5q0 26 18 44t44 18q25 0 43.5 -18t18.5 -44z" />
    <glyph glyph-name="aring" unicode="&#xe5;" horiz-adv-x="562" 
d="M612 0h-326v38h35q65 0 65 43q0 12 -17 51q-12 29 -25 58h-205q-33 -80 -33 -95q0 -57 65 -57h43v-38h-284v38h23q50 0 87 47q23 30 60 110l176 384h17l208 -450q22 -49 34 -64q21 -27 51 -27h26v-38zM331 226l-88 195q-18 -43 -87 -195h175zM347 692q0 -26 -18.5 -45
t-45.5 -19q-26 0 -45 19t-19 45q0 27 19 45.5t45 18.5q27 0 45.5 -18.5t18.5 -45.5zM322 692q0 16 -11 27.5t-28 11.5q-16 0 -27 -11.5t-11 -27.5t11 -27t27 -11q17 0 28 11t11 27z" />
    <glyph glyph-name="ae" unicode="&#xe6;" horiz-adv-x="886" 
d="M817 0h-593v38h41q67 0 67 66v87h-195q-21 -31 -62 -98q-7 -11 -7 -22q0 -33 44 -33h25v-38h-226v38h21q36 0 73 37q25 26 74 100q83 119 246 356h-101v37h584v-211h-38q-3 104 -48 142q-39 32 -135 32h-137v-220h37q49 0 80 28t31 80v21h38v-314h-38v20q0 56 -30.5 91.5
t-80.5 35.5h-37v-235h140q97 0 132 26q55 40 58 173h37v-237zM332 226v247q-58 -83 -172 -247h172z" />
    <glyph glyph-name="ccedilla" unicode="&#xe7;" horiz-adv-x="637" 
d="M592 224q-7 -107 -83 -169.5t-192 -62.5q-118 0 -200 84.5t-82 208.5q0 123 83.5 206.5t204.5 83.5q99 0 172 -64q25 22 54 49h33v-238h-31q-22 89 -72 145q-61 68 -150 68q-69 0 -102 -43q-45 -59 -45 -207q0 -137 37 -193t126 -56q84 0 140.5 54t60.5 134h46zM429 -127
q0 -34 -28 -56t-62 -22q-41 0 -79 25l12 29q16 -16 37 -16q40 0 40 32q0 26 -32 44.5t-32 63.5v25h33v-15q0 -35 47 -41q64 -8 64 -69z" />
    <glyph glyph-name="egrave" unicode="&#xe8;" horiz-adv-x="679" 
d="M619 0h-593v38h42q66 0 66 66v360q0 67 -58 67h-50v37h584v-211h-38q-10 102 -51.5 138t-141.5 36h-127v-220h37q49 0 79.5 28t30.5 80v21h40v-314h-40v20q0 56 -30 91.5t-80 35.5h-37v-235h120q90 0 133 26q73 44 76 173h38v-237zM401 634h-24q-51 80 -98 147
q-18 25 -18 50q0 39 33 39q38 0 47 -48q18 -86 60 -188z" />
    <glyph glyph-name="eacute" unicode="&#xe9;" horiz-adv-x="679" 
d="M619 0h-593v38h42q66 0 66 66v360q0 67 -58 67h-50v37h584v-211h-38q-10 102 -51.5 138t-141.5 36h-127v-220h37q49 0 79.5 28t30.5 80v21h40v-314h-40v20q0 56 -30 91.5t-80 35.5h-37v-235h120q90 0 133 26q73 44 76 173h38v-237zM478 831q0 -25 -18 -50
q-23 -34 -99 -147h-23q44 99 60 188q8 48 47 48q33 0 33 -39z" />
    <glyph glyph-name="ecircumflex" unicode="&#xea;" horiz-adv-x="679" 
d="M619 0h-593v38h42q66 0 66 66v360q0 67 -58 67h-50v37h584v-211h-38q-10 102 -51.5 138t-141.5 36h-127v-220h37q49 0 79.5 28t30.5 80v21h40v-314h-40v20q0 56 -30 91.5t-80 35.5h-37v-235h120q90 0 133 26q73 44 76 173h38v-237zM470 654l-12 -16l-112 83l-111 -83
l-14 15q38 48 91 120q17 -3 38 -3q20 0 33 3q31 -48 87 -119z" />
    <glyph glyph-name="edieresis" unicode="&#xeb;" horiz-adv-x="679" 
d="M619 0h-593v38h42q66 0 66 66v360q0 67 -58 67h-50v37h584v-211h-38q-10 102 -51.5 138t-141.5 36h-127v-220h37q49 0 79.5 28t30.5 80v21h40v-314h-40v20q0 56 -30 91.5t-80 35.5h-37v-235h120q90 0 133 26q73 44 76 173h38v-237zM479 693q0 -26 -18.5 -44t-43.5 -18
q-26 0 -44 18t-18 44t18 44t44 18q25 0 43.5 -18t18.5 -44zM323 693q0 -26 -18.5 -44t-43.5 -18q-26 0 -44 18t-18 44t18 44t44 18q25 0 43.5 -18t18.5 -44z" />
    <glyph glyph-name="igrave" unicode="&#xec;" horiz-adv-x="385" 
d="M359 0h-333v38h40q67 0 67 66v360q0 67 -58 67h-49v37h333v-37h-44q-65 0 -65 -65v-362q0 -30 20.5 -48t55.5 -18h33v-38zM205 634h-23q-52 80 -99 147q-17 25 -17 50q0 39 33 39q37 0 47 -48q17 -86 59 -188z" />
    <glyph glyph-name="iacute" unicode="&#xed;" horiz-adv-x="385" 
d="M359 0h-333v38h40q67 0 67 66v360q0 67 -58 67h-49v37h333v-37h-44q-65 0 -65 -65v-362q0 -30 20.5 -48t55.5 -18h33v-38zM325 831q0 -25 -17 -50q-23 -34 -99 -147h-23q44 99 59 188q9 48 48 48q32 0 32 -39z" />
    <glyph glyph-name="icircumflex" unicode="&#xee;" horiz-adv-x="385" 
d="M359 0h-333v38h40q67 0 67 66v360q0 67 -58 67h-49v37h333v-37h-44q-65 0 -65 -65v-362q0 -30 20.5 -48t55.5 -18h33v-38zM317 654l-12 -16l-112 83l-111 -83l-14 15q38 48 91 120q17 -3 38 -3q20 0 33 3q31 -48 87 -119z" />
    <glyph glyph-name="idieresis" unicode="&#xef;" horiz-adv-x="385" 
d="M359 0h-333v38h40q67 0 67 66v360q0 67 -58 67h-49v37h333v-37h-44q-65 0 -65 -65v-362q0 -30 20.5 -48t55.5 -18h33v-38zM329 693q0 -26 -18 -44t-44 -18t-44 18t-18 44t18 44t44 18t44 -18t18 -44zM173 693q0 -26 -18 -44t-44 -18t-44 18t-18 44t18 44t44 18t44 -18
t18 -44z" />
    <glyph glyph-name="eth" unicode="&#xf0;" horiz-adv-x="623" 
d="M588 327q0 -136 -73 -232q-79 -103 -204 -103q-124 0 -202 86q-74 82 -74 206q0 121 78 204.5t188 83.5q92 0 146 -61q-19 102 -66 174q-21 -7 -66.5 -24t-67.5 -25l-13 30l127 47q-47 67 -103 113l29 19q52 -29 133 -109q48 17 110 37l12 -28l-98 -36q144 -169 144 -382
zM445 277q0 117 -35 185q-37 74 -106 74q-131 0 -131 -247q0 -128 24 -186q32 -75 115 -75q68 0 103 73q30 64 30 176z" />
    <glyph glyph-name="ntilde" unicode="&#xf1;" horiz-adv-x="761" 
d="M734 531h-43q-47 0 -63 -36q-13 -27 -13 -91v-412h-25l-421 458v-286q0 -67 17 -95q18 -31 65 -31h40v-38h-271v38h39q42 0 59 30t17 96v299q0 68 -65 68h-50v36h212l349 -383v220q0 127 -75 127h-47v36h275v-36zM522 759q0 -128 -69 -128q-19 0 -62.5 28.5t-61.5 28.5
q-34 0 -34 -50h-18q0 129 70 129q24 0 71.5 -28t57.5 -28q31 0 31 48h15z" />
    <glyph glyph-name="ograve" unicode="&#xf2;" horiz-adv-x="654" 
d="M619 285q0 -122 -85.5 -207.5t-210.5 -85.5q-120 0 -204 87t-84 206q0 115 84.5 202.5t204.5 87.5q123 0 211 -88q84 -86 84 -202zM475 284q0 136 -34.5 193.5t-116.5 57.5q-79 0 -112.5 -58t-33.5 -192t32 -192q33 -61 114 -61t116 59.5t35 192.5zM341 634h-23
q-52 80 -98 147q-18 25 -18 50q0 39 33 39q37 0 47 -48q18 -86 59 -188z" />
    <glyph glyph-name="oacute" unicode="&#xf3;" horiz-adv-x="654" 
d="M619 285q0 -122 -85.5 -207.5t-210.5 -85.5q-120 0 -204 87t-84 206q0 115 84.5 202.5t204.5 87.5q123 0 211 -88q84 -86 84 -202zM475 284q0 136 -34.5 193.5t-116.5 57.5q-79 0 -112.5 -58t-33.5 -192t32 -192q33 -61 114 -61t116 59.5t35 192.5zM467 831
q0 -25 -17 -50q-24 -34 -99 -147h-23q44 99 59 188q9 48 47 48q33 0 33 -39z" />
    <glyph glyph-name="ocircumflex" unicode="&#xf4;" horiz-adv-x="654" 
d="M619 285q0 -122 -85.5 -207.5t-210.5 -85.5q-120 0 -204 87t-84 206q0 115 84.5 202.5t204.5 87.5q123 0 211 -88q84 -86 84 -202zM475 284q0 136 -34.5 193.5t-116.5 57.5q-79 0 -112.5 -58t-33.5 -192t32 -192q33 -61 114 -61t116 59.5t35 192.5zM454 654l-12 -16
l-113 83l-111 -83l-14 15q38 48 91 120q17 -3 38 -3t33 3q32 -48 88 -119z" />
    <glyph glyph-name="otilde" unicode="&#xf5;" horiz-adv-x="654" 
d="M452 759q0 -128 -69 -128q-19 0 -62.5 28.5t-62.5 28.5q-33 0 -33 -50h-19q0 129 71 129q23 0 71 -28t58 -28q30 0 30 48h16zM619 285q0 -122 -85.5 -207.5t-210.5 -85.5q-120 0 -204 87t-84 206q0 115 84.5 202.5t204.5 87.5q123 0 211 -88q84 -86 84 -202zM475 284
q0 136 -34.5 193.5t-116.5 57.5q-79 0 -112.5 -58t-33.5 -192t32 -192q33 -61 114 -61t116 59.5t35 192.5z" />
    <glyph glyph-name="odieresis" unicode="&#xf6;" horiz-adv-x="654" 
d="M619 285q0 -122 -85.5 -207.5t-210.5 -85.5q-120 0 -204 87t-84 206q0 115 84.5 202.5t204.5 87.5q123 0 211 -88q84 -86 84 -202zM475 284q0 136 -34.5 193.5t-116.5 57.5q-79 0 -112.5 -58t-33.5 -192t32 -192q33 -61 114 -61t116 59.5t35 192.5zM467 695
q0 -26 -18.5 -44t-43.5 -18q-26 0 -44 18t-18 44t18 44t44 18q25 0 43.5 -18t18.5 -44zM311 695q0 -26 -18.5 -44t-43.5 -18q-26 0 -44 18t-18 44t18 44t44 18q25 0 43.5 -18t18.5 -44z" />
    <glyph glyph-name="divide" unicode="&#xf7;" horiz-adv-x="494" 
d="M312 558q0 -27 -18.5 -45.5t-44.5 -18.5q-27 0 -45.5 18.5t-18.5 45.5q0 26 18.5 44.5t45.5 18.5q26 0 44.5 -18.5t18.5 -44.5zM454 370h-414v68h414v-68zM312 251q0 -26 -18.5 -44.5t-44.5 -18.5q-27 0 -45.5 18.5t-18.5 44.5t18.5 45t45.5 19q26 0 44.5 -19t18.5 -45z
" />
    <glyph glyph-name="oslash" unicode="&#xf8;" horiz-adv-x="664" 
d="M624 285q0 -122 -85 -207.5t-211 -85.5q-7 0 -31 2q-8 -36 -23 -106h-37l24 112q-96 22 -158.5 102.5t-62.5 182.5q0 115 84.5 202.5t204.5 87.5q24 0 53 -5q5 26 16 75h36l-17 -82q92 -30 149.5 -107.5t57.5 -170.5zM480 284q0 187 -73 232q-34 -160 -103 -482
q16 -2 25 -2q81 0 116 59.5t35 192.5zM373 530q-19 5 -44 5q-79 0 -112.5 -58t-33.5 -192q0 -200 87 -243z" />
    <glyph glyph-name="ugrave" unicode="&#xf9;" horiz-adv-x="738" 
d="M728 529h-29q-83 0 -83 -125v-178q0 -115 -49 -170q-59 -65 -201 -65q-243 0 -243 163v310q0 65 -64 65h-44v39h316v-39h-27q-29 0 -46.5 -18t-17.5 -49v-256q0 -99 43 -140q36 -34 108 -34q186 0 186 184v188q0 125 -89 125h-27v39h267v-39zM422 634h-23q-52 80 -99 147
q-17 25 -17 50q0 39 32 39q38 0 48 -48q17 -86 59 -188z" />
    <glyph glyph-name="uacute" unicode="&#xfa;" horiz-adv-x="738" 
d="M728 529h-29q-83 0 -83 -125v-178q0 -115 -49 -170q-59 -65 -201 -65q-243 0 -243 163v310q0 65 -64 65h-44v39h316v-39h-27q-29 0 -46.5 -18t-17.5 -49v-256q0 -99 43 -140q36 -34 108 -34q186 0 186 184v188q0 125 -89 125h-27v39h267v-39zM542 831q0 -25 -17 -50
q-24 -34 -99 -147h-23q43 99 59 188q9 48 47 48q33 0 33 -39z" />
    <glyph glyph-name="ucircumflex" unicode="&#xfb;" horiz-adv-x="738" 
d="M728 529h-29q-83 0 -83 -125v-178q0 -115 -49 -170q-59 -65 -201 -65q-243 0 -243 163v310q0 65 -64 65h-44v39h316v-39h-27q-29 0 -46.5 -18t-17.5 -49v-256q0 -99 43 -140q36 -34 108 -34q186 0 186 184v188q0 125 -89 125h-27v39h267v-39zM530 652l-12 -16l-112 83
l-112 -83l-13 15q38 48 90 120q18 -3 38 -3q21 0 34 3q31 -48 87 -119z" />
    <glyph glyph-name="udieresis" unicode="&#xfc;" horiz-adv-x="738" 
d="M728 529h-29q-83 0 -83 -125v-178q0 -115 -49 -170q-59 -65 -201 -65q-243 0 -243 163v310q0 65 -64 65h-44v39h316v-39h-27q-29 0 -46.5 -18t-17.5 -49v-256q0 -99 43 -140q36 -34 108 -34q186 0 186 184v188q0 125 -89 125h-27v39h267v-39zM545 695q0 -26 -18 -44
t-44 -18t-44 18t-18 44t18 44t44 18t44 -18t18 -44zM389 695q0 -26 -18 -44t-44 -18t-44 18t-18 44t18 44t44 18t44 -18t18 -44z" />
    <glyph glyph-name="yacute" unicode="&#xfd;" horiz-adv-x="666" 
d="M686 531h-24q-46 0 -84 -31q-29 -23 -81 -90q-61 -81 -107 -143v-163q0 -66 74 -66h39v-38h-350v38h56q66 0 66 66v156l-142 190q-36 49 -58 63q-26 18 -68 18h-22v37h361v-37h-17q-79 0 -79 -35q0 -13 12 -31l110 -157q33 41 95 124q27 36 27 64q0 35 -44 35h-50v37h286
v-37zM500 828q0 -25 -18 -51q-23 -33 -98 -146h-24q44 99 60 187q8 49 47 49q33 0 33 -39z" />
    <glyph glyph-name="thorn" unicode="&#xfe;" horiz-adv-x="638" 
d="M623 284q0 -143 -213 -143h-158v-39q0 -64 71 -64h40v-38h-337v38h42q66 0 66 66q-1 193 -1 359q0 67 -58 67h-49v37h333v-37h-44q-65 0 -65 -65v-28h141q94 0 156 -33q76 -41 76 -120zM480 292q0 59 -26 85q-24 22 -75 22h-127v-219h144q84 0 84 112z" />
    <glyph glyph-name="ydieresis" unicode="&#xff;" horiz-adv-x="666" 
d="M686 531h-24q-46 0 -84 -31q-29 -23 -81 -90q-61 -81 -107 -143v-163q0 -66 74 -66h39v-38h-350v38h56q66 0 66 66v156l-142 190q-36 49 -58 63q-26 18 -68 18h-22v37h361v-37h-17q-79 0 -79 -35q0 -13 12 -31l110 -157q33 41 95 124q27 36 27 64q0 35 -44 35h-50v37h286
v-37zM504 689q0 -26 -18.5 -44t-43.5 -18q-26 0 -44 18t-18 44t18 44t44 18q25 0 43.5 -18t18.5 -44zM348 689q0 -26 -18.5 -44t-43.5 -18q-26 0 -44 18t-18 44t18 44t44 18q25 0 43.5 -18t18.5 -44z" />
    <glyph glyph-name="dotlessi" unicode="&#x131;" horiz-adv-x="379" 
d="M353 0h-327v33h36q72 0 72 70v363q0 69 -63 69h-45v33h327v-33h-41q-69 0 -69 -68v-364q0 -32 22 -51t58 -19h30v-33z" />
    <glyph glyph-name="Lslash" unicode="&#x141;" horiz-adv-x="736" 
d="M716 0h-690v39h47q85 0 85 96v210q-17 -9 -53.5 -30.5t-52.5 -31.5l-15 39l121 72v226q0 96 -76 96h-56v39h418v-39h-78q-81 0 -81 -96v-152q58 34 131 77l14 -38l-145 -86v-382h140q119 0 177 63q77 82 77 289h37v-391z" />
    <glyph glyph-name="lslash" unicode="&#x142;" horiz-adv-x="401" 
 />
    <glyph glyph-name="OE" unicode="&#x152;" horiz-adv-x="1234" 
d="M1159 0h-703q-42 -11 -86 -11q-143 0 -245.5 112t-102.5 277q0 153 103.5 270t245.5 117q37 0 80 -10h696v-282h-36q-12 137 -65 190t-175 53h-170v-307h61q62 0 100 39t38 111v31h39v-431h-39v33q0 78 -37.5 127.5t-100.5 49.5h-61v-330h161q110 0 165 39q91 63 95 240
h37v-318zM567 376q0 184 -46 265t-150 81q-96 0 -142 -80q-48 -83 -48 -264q0 -175 44 -258q46 -88 146 -88q196 0 196 344z" />
    <glyph glyph-name="oe" unicode="&#x153;" horiz-adv-x="1023" 
d="M963 0h-571q-36 -8 -69 -8q-120 0 -204 87t-84 206q0 115 84.5 202.5t204.5 87.5q28 0 64 -7h566v-211h-37q-10 101 -53 139q-41 35 -140 35h-128v-220h38q48 0 79 28t31 80v21h39v-314h-39v20q0 56 -30.5 91.5t-79.5 35.5h-38v-235h121q90 0 132 26q73 44 76 173h38
v-237zM475 284q0 136 -34.5 193.5t-116.5 57.5q-79 0 -113 -58t-34 -192t32 -192q34 -61 115 -61t116 59.5t35 192.5z" />
    <glyph glyph-name="Scaron" unicode="&#x160;" horiz-adv-x="737" 
d="M697 214q0 -108 -99 -171q-86 -54 -201 -54q-77 0 -127 13q-55 14 -114 51q-25 -18 -75 -53h-31v304h35q45 -275 312 -275q69 0 116 27q57 33 57 94q0 83 -71 126q-43 26 -160 55q-132 32 -183 66q-86 55 -86 162q0 94 78 151q75 54 187 54q77 0 127 -17q39 -13 80 -45
q26 17 75 51h28v-288h-35q-30 258 -274 258q-59 0 -105 -23q-59 -29 -59 -82q0 -62 69 -100q44 -24 152 -52q147 -38 205 -75q99 -62 99 -177zM462 910q-38 -47 -90 -119q-18 2 -38 2q-21 0 -33 -2q-34 52 -88 118l12 16l112 -82l112 82z" />
    <glyph glyph-name="scaron" unicode="&#x161;" horiz-adv-x="625" 
d="M585 168q0 -81 -82 -131q-73 -45 -167 -45q-124 0 -195 46q-21 -12 -61 -38h-30v228h34q34 -198 252 -198q52 0 91 20q46 24 46 64q0 51 -53 79q-32 17 -121 37q-112 26 -158 52q-75 42 -75 121q0 72 62 121.5t154 49.5q105 0 174 -43q18 10 60 35h27v-214h-35
q-26 183 -224 183q-51 0 -87 -18q-40 -21 -40 -57q0 -43 53 -66q24 -10 121 -33q124 -28 172 -56q82 -47 82 -137zM425 756q-38 -48 -91 -120q-17 3 -38 3q-20 0 -33 -3q-34 52 -87 118l12 16l112 -82l111 82z" />
    <glyph glyph-name="Ydieresis" unicode="&#x178;" horiz-adv-x="805" 
d="M825 716h-23q-57 0 -104 -42q-36 -32 -102 -125q-18 -25 -133 -191v-223q0 -43 25.5 -69.5t69.5 -26.5h44v-39h-415v39h65q85 0 85 96v214l-171 257q-45 66 -73 86q-32 24 -86 24h-22v39h425v-39h-53q-66 0 -66 -49q0 -18 12 -39q1 -1 144 -227l118 174q36 51 36 90
q0 51 -64 51h-52v39h340v-39zM579 878q0 -26 -18 -44t-44 -18t-44 18t-18 44t18 44t44 18t44 -18t18 -44zM423 878q0 -26 -18 -44t-44 -18t-44 18t-18 44t18 44t44 18t44 -18t18 -44z" />
    <glyph glyph-name="Zcaron" unicode="&#x17d;" horiz-adv-x="709" 
d="M668 0h-638v22l467 694h-133q-129 0 -190 -77q-53 -68 -70 -223h-37v339h599v-24l-468 -692h173q131 0 193.5 66.5t69.5 217.5h33zM489 903q-38 -47 -91 -119q-17 2 -38 2q-20 0 -33 -2q-34 52 -87 118l12 16l112 -82l111 82z" />
    <glyph glyph-name="zcaron" unicode="&#x17e;" horiz-adv-x="603" 
d="M558 0h-528v28l378 503h-101q-181 0 -210 -224h-37v261h496v-30l-378 -500h106q102 0 155 38q67 48 83 171h36v-247zM431 756q-38 -48 -90 -120q-18 3 -38 3q-21 0 -34 -3q-34 52 -87 118l12 16l112 -82l112 82z" />
    <glyph glyph-name="circumflex" unicode="&#x2c6;" horiz-adv-x="531" 
d="M385 654l-12 -16l-113 83l-111 -83l-14 15q39 48 91 120q17 -3 38 -3t33 3q32 -48 88 -119z" />
    <glyph glyph-name="caron" unicode="&#x2c7;" horiz-adv-x="636" 
d="M425 756q-38 -48 -91 -120q-17 3 -38 3q-20 0 -33 -3q-34 52 -87 118l12 16l112 -82l111 82z" />
    <glyph glyph-name="uni02C9" unicode="&#x2c9;" horiz-adv-x="254" 
d="M276 828h-273v66h273v-66z" />
    <glyph glyph-name="breve" unicode="&#x2d8;" horiz-adv-x="294" 
d="M296 920q0 -53 -37 -93q-42 -46 -113 -46q-65 0 -108 45q-40 41 -40 94v26h26q30 -70 126 -70q48 0 82 24q28 18 37 44h27v-24z" />
    <glyph glyph-name="dotaccent" unicode="&#x2d9;" horiz-adv-x="128" 
d="M125 849q0 -68 -59 -68q-29 0 -46.5 18.5t-17.5 49.5q0 30 17 49t47 19q26 0 42.5 -19.5t16.5 -48.5z" />
    <glyph glyph-name="ring" unicode="&#x2da;" horiz-adv-x="539" 
d="M330 682q0 -26 -18.5 -45t-45.5 -19q-26 0 -45 19t-19 45q0 27 19 45.5t45 18.5q27 0 45.5 -18.5t18.5 -45.5zM305 682q0 16 -11.5 27.5t-27.5 11.5t-27 -11.5t-11 -27.5t11 -27t27 -11t27.5 11t11.5 27z" />
    <glyph glyph-name="ogonek" unicode="&#x2db;" horiz-adv-x="443" 
d="M351 -119q-36 -44 -46 -52q-42 -36 -93 -36q-27 0 -46 19t-19 48q0 42 29 87q16 24 56 68l43 1q-44 -62 -44 -97q0 -44 39 -44q17 0 63 26z" />
    <glyph glyph-name="tilde" unicode="&#x2dc;" horiz-adv-x="531" 
d="M391 761q0 -128 -69 -128q-19 0 -62.5 28.5t-61.5 28.5q-34 0 -34 -50h-18q0 129 70 129q24 0 72 -28t57 -28q31 0 31 48h15z" />
    <glyph glyph-name="hungarumlaut" unicode="&#x2dd;" horiz-adv-x="743" 
d="M583 844q20 -1 20 -26t-22 -49q-25 -28 -107 -124h-24q83 141 89 160q15 41 44 39zM438 844q21 -1 21 -25q0 -25 -23 -50q-43 -48 -107 -124h-23q83 141 89 160q14 41 43 39z" />
    <glyph glyph-name="endash" unicode="&#x2013;" horiz-adv-x="384" 
d="M369 299h-347v79h347v-79z" />
    <glyph glyph-name="emdash" unicode="&#x2014;" horiz-adv-x="712" 
d="M688 299h-664v79h664v-79z" />
    <glyph glyph-name="quoteleft" unicode="&#x2018;" horiz-adv-x="215" 
d="M192 499l-10 -33q-63 29 -104 73q-55 60 -55 136q0 39 24 64.5t57 25.5t55.5 -21t22.5 -52t-17.5 -51.5t-46.5 -20.5q-15 0 -28 3q0 -35 34 -73q31 -36 68 -51z" />
    <glyph glyph-name="quoteright" unicode="&#x2019;" horiz-adv-x="215" 
d="M192 675q0 -76 -55 -136q-41 -44 -104 -73l-10 33q37 15 69.5 52t32.5 72q-13 -3 -27 -3q-30 0 -47.5 20.5t-17.5 51.5t22.5 52t55.5 21t57 -25.5t24 -64.5z" />
    <glyph glyph-name="quotesinglbase" unicode="&#x201a;" horiz-adv-x="215" 
d="M192 44q0 -76 -55 -136q-41 -44 -104 -72l-10 32q37 15 69.5 52t32.5 72q-13 -3 -27 -3q-30 0 -47.5 20.5t-17.5 52.5q0 30 22.5 51t55.5 21t57 -25t24 -65z" />
    <glyph glyph-name="quotedblleft" unicode="&#x201c;" horiz-adv-x="404" 
d="M381 499l-10 -33q-62 29 -104 73q-55 60 -55 136q0 39 24.5 64.5t56.5 25.5q33 0 55.5 -21t22.5 -52t-17.5 -51.5t-46.5 -20.5q-15 0 -28 3q0 -35 34 -73q31 -36 68 -51zM192 499l-10 -33q-63 29 -104 73q-55 60 -55 136q0 39 24 64.5t57 25.5t55.5 -21t22.5 -52
t-17.5 -51.5t-46.5 -20.5q-15 0 -28 3q0 -35 34 -73q31 -36 68 -51z" />
    <glyph glyph-name="quotedblright" unicode="&#x201d;" horiz-adv-x="404" 
d="M381 675q0 -76 -55 -136q-41 -44 -103 -73l-11 33q37 15 69.5 52t32.5 72q-13 -3 -27 -3q-30 0 -47 20.5t-17 51.5t22 52t55 21t57 -25.5t24 -64.5zM192 675q0 -76 -55 -136q-41 -44 -104 -73l-10 33q37 15 69.5 52t32.5 72q-13 -3 -27 -3q-30 0 -47.5 20.5t-17.5 51.5
t22.5 52t55.5 21t57 -25.5t24 -64.5z" />
    <glyph glyph-name="quotedblbase" unicode="&#x201e;" horiz-adv-x="401" 
d="M381 43q0 -75 -55 -135q-41 -45 -103 -73l-11 32q37 16 68 51q34 39 34 73q-13 -3 -27 -3q-30 0 -47 20.5t-17 52.5q0 30 22 51t55 21t57 -25t24 -65zM192 43q0 -75 -55 -135q-41 -45 -104 -73l-10 32q37 16 68 51q34 39 34 73q-13 -3 -27 -3q-30 0 -47.5 20.5
t-17.5 52.5q0 30 22.5 51t55.5 21t57 -25t24 -65z" />
    <glyph glyph-name="dagger" unicode="&#x2020;" horiz-adv-x="321" 
d="M311 537q0 -61 -50 -61q-18 0 -41 17t-36 19q0 -18 6 -46q8 -34 20 -43q-35 -123 -35 -387h-31q0 270 -32 387q23 13 23 89q-5 -2 -35 -20q-22 -13 -39 -13q-23 0 -37 16.5t-14 42.5t15.5 42t37.5 16q14 0 37.5 -17t33.5 -17q-2 32 -19 67q-15 32 -15 54q0 28 14 47
q17 23 47 23t46.5 -20.5t16.5 -48.5q0 -26 -16 -56q-19 -35 -23 -66q6 2 34 18q24 13 38 13q54 0 54 -56z" />
    <glyph glyph-name="daggerdbl" unicode="&#x2021;" horiz-adv-x="321" 
d="M311 264q0 -56 -54 -56q-14 0 -38 13q-28 16 -34 18q4 -31 23 -66q16 -31 16 -56q0 -28 -16.5 -48.5t-46.5 -20.5t-45.5 21t-15.5 49q0 22 16 55.5t18 65.5q-10 0 -33.5 -17t-37.5 -17q-22 0 -37.5 16t-15.5 42t14 42t37 16q17 0 39 -13q30 -18 35 -19q0 1 1 13.5t1 21.5
q0 54 -25 80q25 18 25 70q0 10 -1 23.5t-1 14.5q-5 -2 -35 -20q-22 -13 -39 -13q-23 0 -37 16.5t-14 42.5t15.5 42t37.5 16q14 0 37.5 -17t33.5 -17q-2 32 -19 67q-15 32 -15 54q0 28 14 47q17 23 47 23t46.5 -20.5t16.5 -48.5q0 -26 -16 -56q-19 -35 -23 -66q6 2 34 18
q24 13 38 13q54 0 54 -56q0 -61 -50 -61q-18 0 -41 17t-36 19q0 -87 26 -108q-26 -33 -26 -115q13 2 36 19t41 17q50 0 50 -61z" />
    <glyph glyph-name="bullet" unicode="&#x2022;" horiz-adv-x="376" 
d="M306 390q0 -48 -34.5 -82.5t-83.5 -34.5t-83.5 34.5t-34.5 82.5q0 49 34.5 83.5t83.5 34.5t83.5 -34.5t34.5 -83.5z" />
    <glyph glyph-name="ellipsis" unicode="&#x2026;" horiz-adv-x="565" 
d="M542 61q0 -30 -21.5 -51t-51.5 -21t-51 21t-21 51t21 51.5t51 21.5t51.5 -21.5t21.5 -51.5zM355 61q0 -30 -21.5 -51t-51.5 -21t-51 21t-21 51t21 51.5t51 21.5t51.5 -21.5t21.5 -51.5zM168 61q0 -30 -21.5 -51t-51.5 -21t-51 21t-21 51t21 51.5t51 21.5t51.5 -21.5
t21.5 -51.5z" />
    <glyph glyph-name="perthousand" unicode="&#x2030;" horiz-adv-x="1398" 
d="M1378 240q0 -104 -61.5 -175.5t-147.5 -71.5q-82 0 -142.5 71.5t-60.5 175.5q0 99 61 173.5t143 74.5q86 0 147 -74t61 -174zM915 240q0 -104 -61.5 -175.5t-147.5 -71.5q-82 0 -142.5 71.5t-60.5 175.5q0 99 61 173.5t143 74.5q86 0 147 -74t61 -174zM607 755l-234 -755
h-48l234 755h48zM431 515q0 -105 -61 -177t-146 -72q-83 0 -143.5 72t-60.5 177q0 97 61 172t144 75q85 0 145.5 -74.5t60.5 -172.5zM1274 240q0 117 -23.5 166t-80.5 49q-53 0 -77 -50t-24 -165q0 -109 22 -159q24 -54 79 -54q104 0 104 213zM811 240q0 117 -23.5 166
t-80.5 49q-53 0 -77 -50t-24 -165q0 -109 22 -159q24 -54 79 -54q104 0 104 213zM329 515q0 114 -24 163.5t-80 49.5q-54 0 -78 -50t-24 -163q0 -111 22 -161q24 -54 80 -54q104 0 104 215z" />
    <glyph glyph-name="guilsinglleft" unicode="&#x2039;" horiz-adv-x="208" 
d="M172 151h-21l-115 232l115 230h21l-52 -230z" />
    <glyph glyph-name="guilsinglright" unicode="&#x203a;" horiz-adv-x="208" 
d="M172 383l-116 -232h-21l52 232l-52 230h21z" />
    <glyph glyph-name="fraction" unicode="&#x2044;" horiz-adv-x="935" 
d="M607 755l-234 -755h-48l234 755h48z" />
    <glyph glyph-name="trademark" unicode="&#x2122;" horiz-adv-x="899" 
d="M874 360h-197v34h19q39 0 39 37v224l-111 -295h-24l-103 300v-186q0 -80 35 -80h20v-34h-150v34h25q38 0 38 80v210q0 42 -34 42h-29v29h142l93 -273q34 91 104 273h132v-29h-23q-37 0 -37 -39v-255q0 -38 40 -38h21v-34zM378 589h-35q0 137 -98 137h-6v-294
q0 -38 40 -38h27v-34h-216v34h38q34 0 34 38v294h-5q-97 0 -97 -137h-35v166h353v-166z" />
    <glyph glyph-name="uni2215" unicode="&#x2215;" horiz-adv-x="935" 
d="M607 755l-234 -755h-48l234 755h48z" />
    <glyph glyph-name="uni2219" unicode="&#x2219;" horiz-adv-x="175" 
d="M157 390q0 -34 -19 -58t-50 -24t-51 24.5t-20 57.5q0 32 19.5 54.5t50.5 22.5q29 0 49.5 -22.5t20.5 -54.5z" />
    <glyph glyph-name="radical" unicode="&#x221a;" horiz-adv-x="668" 
d="M623 676q-25 -75 -37 -237q-290 -147 -506 -441l-35 24q19 65 19 161q0 93 -17 170l118 72q-6 -148 -25 -253q119 174 211 275q123 135 272 229z" />
    <glyph glyph-name="integral" unicode="&#x222b;" horiz-adv-x="707" 
d="M637 476l-176 -138q24 -77 69 -224l-176 138q-30 -22 -177 -137l67 223q-59 47 -174 138h217l68 235l70 -235h212z" />
    <glyph glyph-name="glyph227" horiz-adv-x="401" 
 />
    </font>
</defs>
</svg>
