<svg width="119" height="65" viewBox="0 0 119 65" fill="none" xmlns="http://www.w3.org/2000/svg">
<path d="M60.9408 61.0325C57.8201 61.0325 53.9543 49.8303 49.6845 38.6282H39.204L39.9803 40.1733H20.5724L20.9605 38.6282H18.2434C10.4803 60.26 6.98685 62.1914 0 61.8051V64.8953H26.3948V61.8051H23.6777H20.9605C12.8092 61.0325 16.6911 49.0578 19.4082 43.2636H41.1451C48.5201 59.1011 44.6385 61.8051 40.3687 61.8051H35.7108V64.8953H111.402V38.6282H109.073C109.461 58.7148 98.2037 61.8051 91.2172 61.8051H74.9148V38.6282H65.5987V55.2383C65.5987 58.7148 62.8816 61.4188 60.9408 61.0325Z" fill="black"/>
<path d="M34.1575 24.722H44.2496L34.5457 0H33.7694L23.6772 24.722H26.3944L30.2759 14.2924L34.1575 24.722Z" fill="black"/>
<path d="M74.9143 24.722H65.5985V11.5884C65.5985 5.40792 61.3289 4.24908 58.6118 4.24908H54.936V1.5451H110.625V24.722H108.296C108.296 11.2021 100.921 3.8628 90.4406 4.24908H74.9143V24.722Z" fill="black"/>
<path d="M93.9343 24.7221H90.0527C91.2948 22.5589 91.6054 17.6402 91.6054 15.4513H93.9343V24.7221Z" fill="black"/>
<path d="M93.9342 38.6282H88.8882C90.7513 40.7914 91.2171 44.6799 91.2171 46.3538V51.3755H93.9342V38.6282Z" fill="black"/>
<path d="M10.811 27.6578L14.3347 35.5379H13.5429L12.8302 33.9488H7.61725L6.91779 35.5379H6.15234L9.66285 27.6578H10.811ZM7.8812 33.3052H12.5663L10.4019 28.2882H10.0852L7.8812 33.3052Z" fill="black"/>
<path d="M21.4735 35.5379H15.3235V27.6578H16.0493V34.9206H21.4735V35.5379Z" fill="black"/>
<path d="M22.4635 27.6578H28.4023V28.3145H23.2025V31.0331H27.848V31.6767H23.2025V34.8944H28.6003V35.5379H22.4635V27.6578Z" fill="black"/>
<path d="M33.1624 31.1382L35.6699 27.6578H36.5278L33.6771 31.4402L36.8181 35.5379H35.9471L33.1624 31.7817L30.3514 35.5379H29.5331L32.5949 31.4534L29.7047 27.6578H30.5625L33.1624 31.1382Z" fill="black"/>
<path d="M37.8776 27.6578H43.8164V28.3145H38.6167V31.0331H43.2621V31.6767H38.6167V34.8944H44.0144V35.5379H37.8776V27.6578Z" fill="black"/>
<path d="M48.3258 35.5379V33.778L44.8813 27.6578H45.7259L48.6821 32.9769H48.7481L51.7043 27.6578H52.5094L49.0649 33.7255V35.5379H48.3258Z" fill="black"/>
<path d="M62.0737 28.8398C61.8977 28.6034 61.6821 28.4195 61.427 28.2882C61.1806 28.1569 60.8991 28.0912 60.5824 28.0912C60.0985 28.0912 59.7201 28.205 59.4474 28.4327C59.1834 28.6515 59.0515 28.958 59.0515 29.352C59.0515 29.5709 59.0911 29.7679 59.1702 29.943C59.2582 30.1181 59.3814 30.2889 59.5398 30.4552L62.8127 33.8831C62.9359 33.743 63.0327 33.5898 63.1031 33.4234C63.1734 33.2483 63.2306 33.0601 63.2746 32.8587L63.8553 32.99C63.7937 33.2352 63.7189 33.4672 63.6309 33.6861C63.5518 33.8962 63.4242 34.1107 63.2482 34.3296L64.0005 35.1439L63.5518 35.5511L62.8259 34.7893C62.5268 35.0607 62.1616 35.2796 61.7305 35.446C61.2994 35.6036 60.8199 35.6824 60.292 35.6824C59.9137 35.6824 59.5398 35.6299 59.1702 35.5248C58.8007 35.411 58.4708 35.2402 58.1804 35.0126C57.8901 34.7849 57.6525 34.5004 57.4678 34.1589C57.283 33.8087 57.1906 33.4103 57.1906 32.9637C57.1906 32.3859 57.3226 31.8824 57.5866 31.4534C57.7097 31.252 57.8549 31.0725 58.0221 30.9149C58.198 30.7485 58.4136 30.5866 58.6687 30.429C58.572 30.2801 58.4928 30.1181 58.4312 29.943C58.3784 29.7679 58.352 29.5972 58.352 29.4308C58.352 29.1594 58.396 28.9142 58.484 28.6953C58.5808 28.4764 58.7127 28.2882 58.8799 28.1306C59.0823 27.9292 59.3286 27.776 59.6189 27.6709C59.9181 27.5658 60.2392 27.5133 60.5824 27.5133C61.0223 27.5133 61.405 27.6009 61.7305 27.776C62.0649 27.9511 62.3332 28.1875 62.5356 28.4852L62.0737 28.8398ZM60.3184 35.0782C60.7143 35.0782 61.0927 35.0126 61.4534 34.8812C61.8229 34.7412 62.1352 34.5573 62.3904 34.3296L59.0251 30.8492C58.6379 31.0769 58.352 31.3702 58.1672 31.7292C58.0001 32.0531 57.9165 32.4603 57.9165 32.9506C57.9165 33.2571 57.9825 33.5372 58.1144 33.7912C58.2464 34.0451 58.4136 34.264 58.6159 34.4478C58.8359 34.6492 59.091 34.8068 59.3814 34.9206C59.6717 35.0257 59.9841 35.0782 60.3184 35.0782Z" fill="black"/>
<path d="M69.0152 27.6578H74.954V28.3145H69.7542V31.0331H74.3997V31.6767H69.7542V34.8944H75.152V35.5379H69.0152V27.6578Z" fill="black"/>
<path d="M79.3974 35.5379L76.0057 27.6578H76.8239L79.8461 34.9732H80.0836L83.1322 27.6578H83.9109L80.506 35.5379H79.3974Z" fill="black"/>
<path d="M91.3494 35.4985L91.0326 35.5642L90.7819 34.8156C90.4124 35.0958 90.0296 35.3103 89.6337 35.4591C89.2378 35.608 88.7759 35.6824 88.248 35.6824C87.7201 35.6824 87.2274 35.6036 86.7699 35.446C86.3124 35.2884 85.8988 35.0651 85.5293 34.7762C85.0542 34.3909 84.6891 33.9225 84.4339 33.3709C84.1788 32.8193 84.0512 32.2195 84.0512 31.5716C84.0512 31.0025 84.1568 30.4727 84.368 29.9824C84.5791 29.4921 84.8695 29.0631 85.239 28.6953C85.6173 28.3276 86.0616 28.0386 86.5719 27.8285C87.0822 27.6184 87.6497 27.5133 88.2744 27.5133C88.9254 27.5133 89.4973 27.6052 89.99 27.7891C90.4827 27.9642 90.927 28.2181 91.323 28.5509L90.927 29.0237C90.5751 28.7435 90.1836 28.529 89.7525 28.3801C89.3302 28.2313 88.8375 28.1569 88.2744 28.1569C87.7641 28.1569 87.2934 28.2444 86.8623 28.4195C86.4311 28.5946 86.0572 28.8442 85.7405 29.1681C85.4501 29.4746 85.217 29.8292 85.041 30.232C84.8738 30.6347 84.7903 31.0813 84.7903 31.5716C84.7903 32.0969 84.8826 32.5697 85.0674 32.99C85.2522 33.4103 85.4985 33.7736 85.8065 34.0801C86.1232 34.3865 86.4883 34.6229 86.9018 34.7893C87.3154 34.9557 87.7641 35.0388 88.248 35.0388C88.7495 35.0388 89.1894 34.9732 89.5677 34.8418C89.946 34.7105 90.3024 34.5223 90.6367 34.2771V31.7817L88.3931 31.7029V31.1776H91.3494V35.4985Z" fill="black"/>
<path d="M92.6648 27.6578H98.6036V28.3145H93.4038V31.0331H98.0493V31.6767H93.4038V34.8944H98.8016V35.5379H92.6648V27.6578Z" fill="black"/>
<path d="M107.336 27.6578V35.5379H106.518L100.698 28.5771V35.5379H99.9852V27.6578H100.817L106.65 34.5923V27.6578H107.336Z" fill="black"/>
<path d="M109.398 35.5379H108.659V27.6578H109.398V35.5379Z" fill="black"/>
<path d="M115.05 27.6578L118.573 35.5379H117.782L117.069 33.9488H111.856L111.156 35.5379H110.391L113.902 27.6578H115.05ZM112.12 33.3052H116.805L114.641 28.2882H114.324L112.12 33.3052Z" fill="black"/>
</svg>
