<svg width="50" height="50" viewBox="0 0 50 50" fill="none" xmlns="http://www.w3.org/2000/svg">
<path d="M48.2453 36.268H1.18611C0.531376 36.268 0 35.7366 0 35.0819C0 21.2226 10.8568 10.3666 24.7161 10.3666C38.5746 10.3666 49.4315 21.2226 49.4315 35.0819C49.4315 35.7366 48.9001 36.268 48.2453 36.268ZM2.40147 33.8958H47.03C46.4322 21.939 36.8468 12.7388 24.7161 12.7388C12.5854 12.7388 2.99927 21.939 2.40147 33.8958Z" fill="black"/>
<path d="M50.0001 42.1986C50.0001 43.7278 48.761 44.9661 47.2326 44.9661H2.95118C1.42268 44.9661 0.183594 43.7278 0.183594 42.1986V40.6171C0.183594 39.0886 1.42268 37.8495 2.95118 37.8495H47.2326C48.761 37.8495 50.0001 39.0886 50.0001 40.6171V42.1986ZM47.6279 40.6171C47.6279 40.3988 47.4508 40.2217 47.2326 40.2217H2.95118C2.73294 40.2217 2.55581 40.3988 2.55581 40.6171V42.1986C2.55581 42.4168 2.73294 42.5939 2.95118 42.5939H47.2326C47.4508 42.5939 47.6279 42.4168 47.6279 42.1986V40.6171Z" fill="black"/>
<path d="M39.5036 30.487C38.8987 30.487 38.3815 30.026 38.3246 29.4108C37.5655 21.2503 28.5613 18.6891 28.1786 18.5848C27.5476 18.4116 27.1744 17.76 27.3467 17.129C27.5191 16.498 28.1715 16.124 28.8001 16.2956C29.2485 16.4166 39.7732 19.3771 40.6857 29.1917C40.7474 29.8441 40.2674 30.4221 39.6151 30.483C39.5779 30.4862 39.5407 30.487 39.5036 30.487Z" fill="black"/>
<path d="M25.4387 12.2807C23.9861 12.2807 22.8071 11.7568 22.8071 11.1111V6.43277C22.8071 5.78716 23.9861 5.26318 25.4387 5.26318C26.8913 5.26318 28.0703 5.78716 28.0703 6.43277V11.1111C28.0703 11.7568 26.8913 12.2807 25.4387 12.2807Z" fill="black"/>
</svg>
