<svg width="56" height="41" viewBox="0 0 56 41" fill="none" xmlns="http://www.w3.org/2000/svg">
<path d="M50.1555 8.73999H44.1829C43.6125 8.73999 43.1504 9.20224 43.1504 9.77247V13.1853C43.1504 13.7556 43.6125 14.2178 44.1829 14.2178H50.1555C50.7259 14.2178 51.188 13.7556 51.188 13.1853V9.77247C51.188 9.20239 50.7258 8.73999 50.1555 8.73999ZM49.123 12.1528H45.2154V10.805H49.123V12.1528Z" fill="black"/>
<path d="M44.1829 14.2178H50.1555C50.7259 14.2178 51.188 13.7556 51.188 13.1853V9.77247C51.188 9.20224 50.7259 8.73999 50.1555 8.73999H44.1829C43.6125 8.73999 43.1504 9.20224 43.1504 9.77247V13.1853C43.1504 13.7556 43.6125 14.2178 44.1829 14.2178ZM45.2154 10.805H49.123V12.1528H45.2154V10.805Z" fill="black"/>
<path d="M14.2626 9.3595H7.8445C7.27426 9.3595 6.81201 9.82174 6.81201 10.392C6.81201 10.9622 7.27426 11.4245 7.8445 11.4245H14.2626C14.8328 11.4245 15.295 10.9622 15.295 10.392C15.295 9.82174 14.8326 9.3595 14.2626 9.3595Z" fill="black"/>
<path d="M28.2855 13.4955C24.3004 13.4955 21.0581 16.7376 21.0581 20.7229C21.0581 24.7081 24.3004 27.9503 28.2855 27.9503C32.2707 27.9503 35.5129 24.7081 35.5129 20.7229C35.5129 16.7376 32.2707 13.4955 28.2855 13.4955ZM28.2855 20.6285C27.1308 20.6285 26.195 19.6925 26.195 18.5378C26.195 17.3834 27.1309 16.4475 28.2855 16.4475C29.4399 16.4475 30.376 17.3833 30.376 18.5378C30.376 19.6925 29.44 20.6285 28.2855 20.6285Z" fill="black"/>
<path d="M14.2626 9.3595H7.8445C7.27426 9.3595 6.81201 9.82174 6.81201 10.392C6.81201 10.9622 7.27426 11.4245 7.8445 11.4245H14.2626C14.8328 11.4245 15.295 10.9622 15.295 10.392C15.295 9.82174 14.8326 9.3595 14.2626 9.3595Z" fill="black"/>
<path d="M24.1553 38.8779H10.1233C9.55307 38.8779 9.09082 39.3402 9.09082 39.9104C9.09082 40.4808 9.55307 40.9429 10.1233 40.9429H24.1553C24.7255 40.9429 25.1878 40.4808 25.1878 39.9104C25.1878 39.3402 24.7255 38.8779 24.1553 38.8779Z" fill="black"/>
<path d="M30.7634 38.8779H28.492C27.9217 38.8779 27.4595 39.3402 27.4595 39.9104C27.4595 40.4808 27.9217 40.9429 28.492 40.9429H30.7634C31.3338 40.9429 31.7959 40.4808 31.7959 39.9104C31.7959 39.3402 31.3338 38.8779 30.7634 38.8779Z" fill="black"/>
<path d="M43.3597 38.8779H34.8933C34.3229 38.8779 33.8608 39.3402 33.8608 39.9104C33.8608 40.4808 34.3229 40.9429 34.8933 40.9429H43.3597C43.9301 40.9429 44.3922 40.4808 44.3922 39.9104C44.3922 39.3402 43.9299 38.8779 43.3597 38.8779Z" fill="black"/>
<path d="M50.3334 4.88982H36.1296L34.0706 1.06428C33.8907 0.729603 33.5413 0.521118 33.1615 0.521118H23.4094C23.0294 0.521118 22.6802 0.729756 22.5002 1.06428L20.4413 4.88982H15.0813V2.98042C15.0813 2.41018 14.6191 1.94793 14.0488 1.94793H8.05858C7.48834 1.94793 7.02609 2.41018 7.02609 2.98042V4.88982H6.23774C3.30808 4.88982 0.924805 7.27325 0.924805 10.2029V23.077V31.7248C0.924805 34.6543 3.30824 37.0375 6.23774 37.0375H50.3335C53.2629 37.0375 55.6463 34.6543 55.6463 31.7248V23.077V10.2029C55.6461 7.27325 53.2627 4.88982 50.3334 4.88982ZM24.026 2.58609H32.5443L33.7842 4.88982H22.7859L24.026 2.58609ZM9.09091 4.0129H13.0162V4.88982H9.09091V4.0129ZM2.98947 10.2029C2.98947 8.41189 4.44657 6.95479 6.23743 6.95479H8.05827H14.0485H21.0578H35.5125H50.3332C52.1241 6.95479 53.581 8.41189 53.581 10.2029V22.0445H40.1936C40.2415 21.6101 40.2681 21.1696 40.2681 20.7228C40.2681 14.1155 34.8924 8.73999 28.2852 8.73999C21.6777 8.73999 16.3022 14.1155 16.3022 20.7228C16.3022 21.165 16.3272 21.6063 16.3752 22.0445H2.98947V10.2029ZM38.2033 20.7228C38.2033 21.1711 38.1704 21.6118 38.1124 22.0445C38.0168 22.7593 37.8472 23.4508 37.6072 24.1095C36.2201 27.9156 32.5652 30.6407 28.2853 30.6407C24.1005 30.6407 20.367 27.9606 18.9618 24.1095C18.8138 23.7041 18.6913 23.2858 18.5973 22.8563C18.5387 22.5887 18.4948 22.3174 18.4584 22.0445C18.4002 21.6076 18.3674 21.1659 18.3674 20.7228C18.3674 15.254 22.8165 10.805 28.2853 10.805C33.7541 10.805 38.2033 15.254 38.2033 20.7228ZM53.5812 31.7248C53.5812 33.5156 52.1242 34.9726 50.3334 34.9726H6.23743C4.44657 34.9726 2.98947 33.5156 2.98947 31.7248V24.1095H16.7911C18.2747 29.1367 22.9788 32.7057 28.2853 32.7057C33.7165 32.7057 38.3126 29.0723 39.7777 24.1095H53.5812V31.7248Z" fill="black"/>
</svg>
