<svg width="47" height="46" viewBox="0 0 47 46" fill="none" xmlns="http://www.w3.org/2000/svg">
<path d="M28.2667 9.51175C28.2663 9.50934 28.2665 9.50687 28.2672 9.50455C28.268 9.50224 28.2693 9.50013 28.271 9.49842L30.015 7.77855C30.3188 7.47889 30.5337 7.09921 30.6354 6.68244C30.7371 6.26567 30.7215 5.82843 30.5903 5.42017C30.4592 5.0119 30.2178 4.6489 29.8934 4.37219C29.569 4.09549 29.1745 3.91613 28.7546 3.85439L26.3445 3.5001C26.3421 3.49974 26.3398 3.49881 26.3379 3.49738C26.3359 3.49595 26.3344 3.49407 26.3333 3.49189L25.2556 1.28242C25.0678 0.897467 24.7773 0.573353 24.4169 0.346724C24.0565 0.120096 23.6407 -6.19988e-06 23.2163 2.40045e-10C22.792 6.20036e-06 22.3761 0.12012 22.0158 0.346759C21.6554 0.573398 21.3649 0.897522 21.1771 1.28248L20.0993 3.49198C20.0982 3.49416 20.0966 3.49604 20.0946 3.49746C20.0927 3.49888 20.0904 3.4998 20.088 3.50013L17.678 3.85443C17.2581 3.91618 16.8636 4.09554 16.5392 4.37225C16.2148 4.64895 15.9734 5.01196 15.8423 5.42023C15.7111 5.82849 15.6955 6.26573 15.7972 6.6825C15.8989 7.09927 16.1138 7.47895 16.4176 7.77861L18.1615 9.49826C18.1633 9.49999 18.1646 9.50212 18.1653 9.50447C18.1661 9.50683 18.1663 9.50933 18.1659 9.51177L17.7542 11.9401C17.6813 12.3635 17.7273 12.7991 17.8868 13.1974C18.0463 13.5957 18.3131 13.9407 18.6567 14.1933C19.0004 14.4459 19.4072 14.5959 19.8309 14.6263C20.2546 14.6568 20.6783 14.5664 21.0537 14.3654L23.2094 13.2188C23.2115 13.2177 23.2139 13.2171 23.2163 13.2171C23.2187 13.2171 23.2211 13.2177 23.2232 13.2188L25.3789 14.3654C25.7544 14.5652 26.1778 14.6546 26.601 14.6237C27.0242 14.5927 27.4304 14.4426 27.7737 14.1903C28.117 13.938 28.3836 13.5935 28.5435 13.1959C28.7034 12.7983 28.7501 12.3633 28.6784 11.9402L28.2667 9.51175ZM26.9551 8.13289C26.7346 8.35041 26.5696 8.61893 26.4745 8.91529C26.3793 9.21165 26.3568 9.52698 26.4089 9.8341L26.8206 12.2626C26.8329 12.335 26.8249 12.4094 26.7975 12.4774C26.7701 12.5455 26.7245 12.6044 26.6658 12.6476C26.607 12.6907 26.5375 12.7164 26.4651 12.7217C26.3927 12.727 26.3203 12.7117 26.256 12.6775L24.1004 11.5309C23.8278 11.3859 23.5244 11.3101 23.2163 11.3101C22.9083 11.3101 22.6049 11.3859 22.3323 11.5309L20.1766 12.6775C20.1124 12.7117 20.0399 12.727 19.9675 12.7217C19.8951 12.7164 19.8256 12.6907 19.7669 12.6475C19.7081 12.6044 19.6625 12.5454 19.6352 12.4774C19.6078 12.4094 19.5998 12.3349 19.6121 12.2625L20.0236 9.83416C20.0757 9.527 20.0532 9.21163 19.9581 8.91524C19.8629 8.61884 19.6979 8.3503 19.4773 8.13277L17.7333 6.41306C17.6813 6.36177 17.6446 6.29681 17.6272 6.2255C17.6098 6.15419 17.6125 6.07939 17.635 6.00954C17.6574 5.93969 17.6987 5.87759 17.7542 5.83025C17.8097 5.78291 17.8772 5.75221 17.949 5.74164L20.3589 5.38733C20.6638 5.34259 20.9533 5.2235 21.2026 5.04032C21.4518 4.85715 21.6533 4.61539 21.7896 4.3359L22.8674 2.12651C22.8995 2.06063 22.9492 2.00515 23.0108 1.96636C23.0725 1.92757 23.1437 1.907 23.2163 1.907C23.2889 1.90699 23.3601 1.92754 23.4217 1.96632C23.4834 2.00511 23.5331 2.06058 23.5652 2.12646L24.643 4.33584C24.7793 4.61533 24.9807 4.85709 25.2299 5.04028C25.4792 5.22346 25.7687 5.34257 26.0735 5.38733L28.4836 5.7417C28.5554 5.75226 28.6229 5.78295 28.6784 5.83029C28.7339 5.87762 28.7752 5.93972 28.7976 6.00956C28.8201 6.07941 28.8228 6.15421 28.8054 6.22551C28.788 6.29682 28.7513 6.36178 28.6993 6.41306L26.9551 8.13289Z" fill="black"/>
<path d="M23.2154 16.7217C22.9655 16.7217 22.7257 16.8221 22.549 17.001C22.3722 17.1798 22.2729 17.4223 22.2729 17.6752V40.7127C22.2729 40.9656 22.3722 41.2081 22.549 41.3869C22.7257 41.5657 22.9655 41.6662 23.2154 41.6662C23.4654 41.6662 23.7051 41.5657 23.8819 41.3869C24.0586 41.2081 24.1579 40.9656 24.1579 40.7127V17.6752C24.1579 17.4223 24.0586 17.1798 23.8819 17.001C23.7051 16.8221 23.4654 16.7217 23.2154 16.7217Z" fill="black"/>
<path d="M36.416 22.8438L36.2794 22.9959C32.0256 27.7238 29.6704 33.8884 29.6753 40.2816V44.3815C29.6753 44.6343 29.7746 44.8769 29.9513 45.0557C30.1281 45.2345 30.3678 45.335 30.6178 45.335C30.8677 45.335 31.1075 45.2345 31.2842 45.0557C31.461 44.8769 31.5603 44.6343 31.5603 44.3815V40.2816C31.5557 34.3627 33.7362 28.6555 37.6744 24.2784L37.8111 24.1262C37.9792 23.9391 38.0669 23.692 38.0549 23.4394C38.043 23.1868 37.9324 22.9494 37.7474 22.7793C37.5624 22.6092 37.3182 22.5205 37.0685 22.5326C36.8188 22.5447 36.5841 22.6566 36.416 22.8438Z" fill="black"/>
<path d="M42.835 20.4906L42.2733 19.7292C42.2375 19.6807 42.2139 19.6241 42.2045 19.5642C42.1951 19.5044 42.2003 19.4432 42.2195 19.3859L42.5211 18.4862C42.5519 18.3944 42.5567 18.2957 42.5349 18.2014C42.5131 18.107 42.4657 18.0206 42.3979 17.9521C42.3302 17.8836 42.2448 17.8356 42.1515 17.8136C42.0582 17.7915 41.9607 17.7964 41.8699 17.8275L40.9805 18.1325C40.9238 18.152 40.8632 18.1572 40.8041 18.1477C40.745 18.1383 40.689 18.1144 40.6411 18.0782L39.8884 17.51C39.8116 17.452 39.7203 17.417 39.6248 17.4087C39.5293 17.4005 39.4335 17.4195 39.3481 17.4635C39.2627 17.5075 39.1912 17.5748 39.1417 17.6577C39.0921 17.7407 39.0665 17.836 39.0678 17.9329L39.0798 18.8828C39.0805 18.9434 39.0667 19.0032 39.0396 19.0572C39.0124 19.1111 38.9727 19.1576 38.9238 19.1925L38.1569 19.7411C38.0787 19.797 38.0175 19.874 37.9803 19.9633C37.9431 20.0526 37.9313 20.1507 37.9463 20.2464C37.9613 20.3421 38.0024 20.4317 38.0651 20.505C38.1278 20.5783 38.2095 20.6324 38.301 20.6612L39.1979 20.9431C39.255 20.9611 39.307 20.9929 39.3494 21.0357C39.3917 21.0785 39.4231 21.1311 39.4409 21.1889L39.7196 22.0961C39.7481 22.1887 39.8015 22.2713 39.874 22.3347C39.9465 22.3981 40.035 22.4398 40.1297 22.4549C40.2243 22.4701 40.3212 22.4582 40.4095 22.4205C40.4978 22.3829 40.5739 22.321 40.6293 22.2418L41.1716 21.4662C41.2061 21.4168 41.252 21.3766 41.3054 21.3491C41.3587 21.3216 41.4179 21.3076 41.4777 21.3084L42.4168 21.3205C42.5126 21.3218 42.6069 21.2959 42.6889 21.2458C42.7709 21.1957 42.8374 21.1234 42.8809 21.037C42.9244 20.9507 42.9432 20.8537 42.9351 20.7571C42.9269 20.6606 42.8923 20.5682 42.835 20.4906Z" fill="black"/>
<path d="M36.9089 17.2172C37.0857 17.396 37.3254 17.4965 37.5754 17.4965C37.8253 17.4965 38.0651 17.3961 38.2418 17.2173C38.4186 17.0385 38.5179 16.796 38.5179 16.5432C38.5179 16.2903 38.4186 16.0478 38.2419 15.869L36.5431 14.1507C36.3663 13.9719 36.1266 13.8715 35.8766 13.8715C35.6267 13.8714 35.3869 13.9719 35.2102 14.1507C35.0334 14.3294 34.9341 14.5719 34.9341 14.8248C34.9341 15.0776 35.0334 15.3201 35.2101 15.4989L36.9089 17.2172Z" fill="black"/>
<path d="M44.4566 22.1568C44.2799 21.978 44.0402 21.8776 43.7902 21.8776C43.5402 21.8776 43.3005 21.978 43.1237 22.1568C42.947 22.3355 42.8477 22.578 42.8477 22.8309C42.8476 23.0837 42.9469 23.3262 43.1237 23.505L44.8224 25.2232C44.9099 25.3118 45.0138 25.382 45.1281 25.4299C45.2425 25.4778 45.365 25.5025 45.4888 25.5025C45.6126 25.5025 45.7351 25.4779 45.8495 25.43C45.9638 25.382 46.0677 25.3118 46.1553 25.2233C46.2428 25.1348 46.3122 25.0297 46.3596 24.914C46.407 24.7984 46.4313 24.6744 46.4314 24.5492C46.4314 24.424 46.407 24.3 46.3596 24.1844C46.3123 24.0687 46.2428 23.9636 46.1553 23.8751L44.4566 22.1568Z" fill="black"/>
<path d="M43.7902 17.4964C43.914 17.4966 44.0366 17.472 44.1509 17.4241C44.2653 17.3762 44.3692 17.3059 44.4566 17.2172L46.1553 15.4989C46.3321 15.3201 46.4314 15.0776 46.4314 14.8248C46.4313 14.5719 46.332 14.3294 46.1553 14.1507C45.9785 13.9719 45.7388 13.8714 45.4888 13.8715C45.2388 13.8715 44.9991 13.9719 44.8224 14.1507L43.1237 15.8691C42.9919 16.0024 42.9021 16.1723 42.8658 16.3572C42.8294 16.5421 42.8481 16.7338 42.9194 16.908C42.9907 17.0822 43.1115 17.2311 43.2665 17.3359C43.4215 17.4406 43.6038 17.4965 43.7902 17.4964Z" fill="black"/>
<path d="M10.0155 22.8438C9.84742 22.6566 9.61272 22.5447 9.36304 22.5326C9.11336 22.5205 8.86916 22.6092 8.68416 22.7793C8.49916 22.9494 8.38852 23.1868 8.37657 23.4394C8.36462 23.692 8.45234 23.9391 8.62044 24.1262L8.75723 24.2785C12.6954 28.6555 14.8759 34.3627 14.8713 40.2815V44.3814C14.8713 44.6343 14.9706 44.8769 15.1473 45.0557C15.3241 45.2345 15.5638 45.3349 15.8137 45.3349C16.0637 45.3349 16.3034 45.2345 16.4802 45.0557C16.6569 44.8769 16.7562 44.6343 16.7562 44.3814V40.2815C16.7612 33.8884 14.406 27.7238 10.1522 22.996L10.0155 22.8438Z" fill="black"/>
<path d="M8.27507 19.7409L7.50824 19.1924C7.45937 19.1574 7.41963 19.111 7.39246 19.057C7.36529 19.0031 7.35149 18.9432 7.35226 18.8827L7.36425 17.9328C7.36548 17.8359 7.33987 17.7405 7.29033 17.6576C7.24078 17.5746 7.16928 17.5073 7.08391 17.4633C6.99854 17.4193 6.9027 17.4004 6.80723 17.4086C6.71176 17.4168 6.62046 17.4519 6.54367 17.5099L5.79097 18.078C5.743 18.1142 5.68704 18.1381 5.62791 18.1476C5.56878 18.1571 5.50827 18.1519 5.45158 18.1324L4.56211 17.8273C4.47137 17.7962 4.37383 17.7914 4.28052 17.8134C4.18721 17.8354 4.10185 17.8834 4.0341 17.952C3.96634 18.0205 3.9189 18.1068 3.89713 18.2012C3.87535 18.2956 3.88012 18.3943 3.91089 18.4861L4.21249 19.3858C4.23171 19.4431 4.23687 19.5043 4.2275 19.5641C4.21814 19.6239 4.19454 19.6805 4.15873 19.7291L3.59708 20.4905C3.53978 20.5682 3.5051 20.6605 3.49697 20.7571C3.48884 20.8536 3.50758 20.9506 3.55108 21.0369C3.59458 21.1233 3.6611 21.1956 3.74312 21.2457C3.82513 21.2958 3.91937 21.3217 4.01518 21.3205L4.9543 21.3084C5.01416 21.3076 5.0733 21.3215 5.12664 21.349C5.17998 21.3765 5.22591 21.4167 5.26046 21.4662L5.80276 22.2418C5.85808 22.3209 5.93419 22.3828 6.02247 22.4205C6.11076 22.4581 6.2077 22.4701 6.30234 22.4549C6.39698 22.4397 6.48553 22.3981 6.55799 22.3347C6.63045 22.2713 6.68392 22.1886 6.71237 22.0961L6.99115 21.1889C7.00892 21.1311 7.04033 21.0785 7.08266 21.0357C7.12498 20.9928 7.17697 20.9611 7.23413 20.9431L8.131 20.6611C8.22252 20.6324 8.30425 20.5783 8.36696 20.505C8.42967 20.4317 8.47085 20.3421 8.48584 20.2463C8.50083 20.1506 8.48904 20.0525 8.45179 19.9632C8.41454 19.8739 8.35332 19.7969 8.27507 19.7409Z" fill="black"/>
<path d="M8.8556 17.4964C8.9794 17.4966 9.102 17.472 9.21638 17.4241C9.33075 17.3762 9.43464 17.3059 9.52207 17.2172L11.2209 15.4989C11.3976 15.3201 11.4969 15.0776 11.4969 14.8248C11.4969 14.5719 11.3976 14.3294 11.2208 14.1507C11.0441 13.9719 10.8043 13.8714 10.5544 13.8715C10.3044 13.8715 10.0647 13.9719 9.88793 14.1507L8.18911 15.8691C8.05731 16.0024 7.96755 16.1723 7.93119 16.3572C7.89483 16.5422 7.9135 16.7338 7.98484 16.908C8.05618 17.0822 8.17698 17.2311 8.33198 17.3359C8.48697 17.4406 8.66919 17.4965 8.8556 17.4964Z" fill="black"/>
<path d="M1.97472 22.1568L0.27602 23.8751C0.099274 24.0539 -1.32549e-05 24.2964 1.32724e-09 24.5492C1.32575e-05 24.8021 0.0993263 25.0445 0.276091 25.2233C0.452855 25.4021 0.692592 25.5025 0.942562 25.5025C1.19253 25.5025 1.43226 25.4021 1.609 25.2233L3.30769 23.505C3.39521 23.4165 3.46463 23.3114 3.51199 23.1957C3.55935 23.08 3.58372 22.9561 3.58371 22.8309C3.58371 22.7057 3.55932 22.5817 3.51195 22.466C3.46458 22.3504 3.39515 22.2453 3.30763 22.1568C3.2201 22.0682 3.1162 21.998 3.00185 21.9501C2.88749 21.9022 2.76493 21.8776 2.64116 21.8776C2.51739 21.8776 2.39483 21.9022 2.28048 21.9502C2.16613 21.9981 2.06224 22.0683 1.97472 22.1568Z" fill="black"/>
<path d="M1.9747 17.2172C2.06222 17.3057 2.16611 17.376 2.28046 17.4239C2.39481 17.4718 2.51736 17.4965 2.64113 17.4965C2.7649 17.4965 2.88746 17.4718 3.00181 17.4239C3.11616 17.376 3.22007 17.3058 3.30759 17.2173C3.39511 17.1287 3.46454 17.0236 3.51191 16.908C3.55928 16.7923 3.58366 16.6684 3.58367 16.5432C3.58368 16.418 3.5593 16.294 3.51194 16.1783C3.46458 16.0627 3.39516 15.9576 3.30765 15.869L1.60898 14.1507C1.43224 13.9719 1.19251 13.8715 0.942545 13.8715C0.692578 13.8714 0.452844 13.9719 0.276082 14.1507C0.0993208 14.3294 1.10477e-05 14.5719 9.20448e-10 14.8248C-5.46891e-06 14.95 0.0243678 15.0739 0.0717279 15.1896C0.119088 15.3053 0.188508 15.4104 0.276023 15.4989L1.9747 17.2172Z" fill="black"/>
</svg>
