<svg width="33" height="56" viewBox="0 0 33 56" fill="none" xmlns="http://www.w3.org/2000/svg">
<path d="M21.3956 40.5453L30.5091 25.891C30.5389 25.8436 30.5638 25.7938 30.5833 25.7421C32.157 23.1757 32.988 20.244 32.988 17.2509C32.988 8.27157 25.6828 0.966309 16.7035 0.966309C7.72431 0.966309 0.418506 8.27157 0.418506 17.2509C0.418506 20.2446 1.25066 23.1775 2.82561 25.7457C2.84385 25.7907 2.86512 25.8345 2.89065 25.877L11.6772 40.5818C4.85645 41.5459 0.371094 44.3505 0.371094 47.7527C0.371094 51.9682 7.53466 55.2695 16.6792 55.2695C25.8238 55.2695 32.9873 51.9676 32.9873 47.7527C32.988 44.3347 28.2935 41.4674 21.3956 40.5453ZM4.46256 24.9245C3.00979 22.6122 2.24207 19.9589 2.24207 17.2509C2.24207 9.27698 8.72909 2.78989 16.7035 2.78989C24.6774 2.78989 31.1644 9.27698 31.1644 17.2509C31.1644 19.9601 30.3967 22.6134 28.9445 24.9245C28.9141 24.9731 28.8892 25.0236 28.8691 25.0759L19.2407 40.5563C19.096 40.7781 19.0675 40.8286 18.8906 41.1191L16.4592 45.0289L4.54401 25.0886C4.52274 25.0321 4.49539 24.9768 4.46256 24.9245ZM16.6798 53.4459C8.14373 53.4459 2.19526 50.4449 2.19526 47.7527C2.19526 45.3091 6.67515 43.0065 12.7008 42.2935L15.6611 47.2482C15.8246 47.5211 16.1176 47.6895 16.4355 47.6919C16.4379 47.6919 16.4409 47.6919 16.4434 47.6919C16.7582 47.6919 17.0512 47.529 17.2178 47.2616L20.33 42.2577C26.4517 42.9208 31.1638 45.2818 31.1638 47.7527C31.1644 50.4455 25.2159 53.4459 16.6798 53.4459Z" fill="black"/>
<path d="M22.601 17.2509C22.601 13.9861 19.9447 11.3297 16.6799 11.3297C13.4151 11.3297 10.7588 13.9861 10.7588 17.2509C10.7588 20.5157 13.4151 23.172 16.6799 23.172C19.9447 23.172 22.601 20.5157 22.601 17.2509ZM12.5824 17.2509C12.5824 14.9915 14.4205 13.1533 16.6799 13.1533C18.9393 13.1533 20.7774 14.9915 20.7774 17.2509C20.7774 19.5103 18.9399 21.3485 16.6799 21.3485C14.4199 21.3485 12.5824 19.5103 12.5824 17.2509Z" fill="black"/>
</svg>
