<svg width="62" height="58" viewBox="0 0 62 58" fill="none" xmlns="http://www.w3.org/2000/svg">
<path d="M33.2692 43.2875C33.7242 41.8792 33.97 40.3768 33.97 38.817C33.97 30.7928 27.465 24.2878 19.4408 24.2878C11.4166 24.2878 4.91162 30.7928 4.91162 38.817C4.91162 46.8413 11.4166 53.3462 19.4408 53.3462C24.81 53.3462 29.499 50.4337 32.0141 46.1025" stroke="black" stroke-width="2"/>
<path d="M36.071 45.1771C36.8791 43.1205 37.3229 40.8809 37.3229 38.5376C37.3229 28.5073 29.1918 20.3761 19.1615 20.3761C9.13116 20.3761 1 28.5073 1 38.5376C1 48.5679 9.13116 56.699 19.1615 56.699C25.8455 56.699 31.6862 53.0882 34.8394 47.7108" stroke="black" stroke-width="2"/>
<path d="M30.6181 24.5673C33.0732 20.0208 37.3824 17.5822 42.912 17.5822C50.9362 17.5822 57.4412 24.0871 57.4412 32.1113C57.4412 40.1356 50.9362 46.6405 42.912 46.6405C34.8877 46.6405 28.3828 40.1356 28.3828 32.1113C28.3828 30.7561 28.5684 29.4442 28.9155 28.1996" stroke="black" stroke-width="2"/>
<path fill-rule="evenodd" clip-rule="evenodd" d="M34.08 16.2782L28.1922 10.7105C28.1922 10.7105 26.8904 10.1166 27.3054 8.32492L28.1037 5.0144C28.1037 5.0144 28.1572 4.30342 29.3317 4.00089L39.7291 1.00911C39.7291 1.00911 40.5178 0.723412 41.1005 1.27468L44.0157 3.95676C44.0157 3.95676 44.9359 4.60215 44.5309 5.78906L41.6514 14.2948L40.8132 14.2948L41.6766 11.0115L32.8788 13.543L35.2251 15.7081L34.08 16.2782ZM31.9333 7.87352L28.9898 5.85974L28.3342 8.90914L31.9333 7.87352ZM32.6186 7.2362L29.8751 5.16489L33.6741 4.07174L32.6186 7.2362ZM33.8183 6.891L34.8738 3.72654L37.6174 5.79785L33.8183 6.891ZM39.6726 2.34572L36.0735 3.38133L38.817 5.45265L39.6726 2.34572ZM43.1305 4.65161L40.7868 2.46522L39.9313 5.57215L43.1305 4.65161ZM42.1902 9.76344L43.4739 5.87314L39.8748 6.90876L39.7908 10.4538L42.1902 9.76344ZM38.6751 7.25396L38.5911 10.7991L35.5919 11.6621L33.6763 8.69231L38.6751 7.25396ZM32.4766 9.03752L34.3921 12.0073L31.9928 12.6977L29.0775 10.0156L32.4766 9.03752Z" fill="black"/>
<path d="M27.8234 22.6113C30.8641 17.0798 36.1533 14.2291 42.9114 14.2291C52.7873 14.2291 60.7934 22.2352 60.7934 32.1112C60.7934 41.9872 52.7873 49.9932 42.9114 49.9932C33.0354 49.9932 25.0293 41.9872 25.0293 32.1112C25.0293 30.0895 25.3648 28.1462 25.9831 26.3339" stroke="black" stroke-width="2"/>
</svg>
