<svg width="64" height="63" viewBox="0 0 64 63" fill="none" xmlns="http://www.w3.org/2000/svg">
<path fill-rule="evenodd" clip-rule="evenodd" d="M38.6766 12.8139C38.6766 12.8139 22.1303 4.1181 7.53105 18.6086C7.53105 18.6086 -9.54183 34.8724 8.52 55.2853C8.52 55.2853 25.9135 70.9192 45.378 55.8968C45.378 55.8968 61.2403 43.8131 51.0067 23.7151L61.7344 23.1843C61.7344 23.1843 64.098 22.976 63.8976 20.9504L63.283 12.4048C63.283 12.4048 63.4915 11.6345 62.2364 10.5557L51.6182 1.01175C51.6182 1.01175 50.9402 0.189391 49.9274 0.218622L40.7399 0.135471C40.7399 0.135471 38.9922 0.340272 38.7649 2.17513L38.6766 12.8139ZM51.1247 3.47472L47.8328 6.87415L56.4285 14.6002L59.7203 11.2008L51.1247 3.47472ZM46.3089 5.32271L48.9353 2.41514L43.0658 2.22605L46.3089 5.32271ZM61.0703 13.3225L58.2487 16.2363L61.3836 19.0541L61.0703 13.3225ZM60.1892 21.0688L46.6351 21.7839L56.3394 17.4268L60.1892 21.0688ZM42.3058 20.9809L54.5262 15.9787L46.7325 8.79175L42.3058 20.9809ZM45.0134 7.24654L41.0695 3.70164L41.1814 17.0636L45.0134 7.24654ZM39.0748 20.8017L38.9637 15.252C38.9637 15.252 23.4848 6.66861 9.62638 19.7653C9.62638 19.7653 -7.11138 35.6469 10.6174 53.9006C10.6174 53.9006 26.5673 69.0523 45.453 52.6942C45.453 52.6942 58.1735 40.137 48.3754 23.8932L42.7223 24.2619C42.7223 24.2619 54.2929 36.321 42.4475 50.7194C42.4475 50.7194 29.5423 65.2314 12.3174 52.3403C12.3174 52.3403 -2.81545 38.9273 11.5103 23.0936C11.5103 23.0936 22.926 10.384 39.0748 20.8017ZM39.5854 23.9856C39.5854 23.9856 52.3593 35.1512 40.7354 49.3622C40.7354 49.3622 29.3569 61.4491 14.8264 51.5072C14.8264 51.5072 -0.0154376 39.9731 12.8461 24.8393C12.8461 24.8393 24.9905 12.4038 39.5854 23.9856Z" fill="black"/>
</svg>
