<svg width="151" height="83" viewBox="0 0 151 83" fill="none" xmlns="http://www.w3.org/2000/svg">
<path d="M77.6065 77.7232C73.6323 77.7232 68.7093 63.4576 63.2719 49.1919H49.9252L50.9138 51.1596H26.1984L26.6927 49.1919H23.2325C13.3463 76.7394 8.89756 79.199 0 78.7071V82.6424H33.613V78.7071H30.1528H26.6927C16.3122 77.7232 21.2556 62.4737 24.7158 55.095H52.3971C61.789 75.2637 56.8459 78.7071 51.4085 78.7071H45.4768V82.6424H141.867V49.1919H138.901C139.395 74.7717 125.06 78.7071 116.163 78.7071H95.402V49.1919H83.5382V70.3445C83.5382 74.7717 80.0781 78.2152 77.6065 77.7232Z" fill="white"/>
<path d="M43.4987 31.4828H56.3507L43.993 0H43.0044L30.1523 31.4828H33.6125L38.5556 18.201L43.4987 31.4828Z" fill="white"/>
<path d="M95.4012 31.4828H83.5378V14.7576C83.5378 6.88685 78.1006 5.41109 74.6404 5.41109H69.9595V1.96765H140.878V31.4828H137.912C137.912 14.2656 128.52 4.91917 115.174 5.41109H95.4012V31.4828Z" fill="white"/>
<path d="M119.623 31.4829H114.68C116.261 28.7281 116.657 22.4643 116.657 19.6768H119.623V31.4829Z" fill="white"/>
<path d="M119.623 49.1919H113.197C115.569 51.9467 116.163 56.8987 116.163 59.0303V65.4253H119.623V49.1919Z" fill="white"/>
<path d="M13.7677 35.2214L18.255 45.2566H17.2466L16.3391 43.2328H9.70048L8.80974 45.2566H7.83496L12.3055 35.2214H13.7677ZM10.0366 42.4133H16.0029L13.2467 36.0242H12.8433L10.0366 42.4133Z" fill="white"/>
<path d="M27.346 45.2566H19.5142V35.2214H20.4385V44.4705H27.346V45.2566Z" fill="white"/>
<path d="M28.6068 35.2214H36.1697V36.0577H29.5479V39.5198H35.4638V40.3394H29.5479V44.437H36.4218V45.2566H28.6068V35.2214Z" fill="white"/>
<path d="M42.2316 39.6536L45.4248 35.2214H46.5172L42.887 40.0383L46.887 45.2566H45.7777L42.2316 40.4732L38.6518 45.2566H37.6098L41.5089 40.055L37.8283 35.2214H38.9207L42.2316 39.6536Z" fill="white"/>
<path d="M48.2362 35.2214H55.7992V36.0577H49.1774V39.5198H55.0933V40.3394H49.1774V44.437H56.0513V45.2566H48.2362V35.2214Z" fill="white"/>
<path d="M61.5417 45.2566V43.0154L57.1552 35.2214H58.2308L61.9955 41.9952H62.0795L65.8442 35.2214H66.8694L62.4829 42.9485V45.2566H61.5417Z" fill="white"/>
<path d="M79.0492 36.7267C78.8252 36.4256 78.5507 36.1915 78.2257 36.0242C77.912 35.857 77.5535 35.7734 77.1501 35.7734C76.5339 35.7734 76.0521 35.9183 75.7047 36.2082C75.3686 36.487 75.2006 36.8772 75.2006 37.379C75.2006 37.6577 75.251 37.9086 75.3518 38.1316C75.4639 38.3546 75.6207 38.572 75.8224 38.7839L79.9904 43.1492C80.1473 42.9708 80.2705 42.7757 80.3602 42.5638C80.4498 42.3408 80.5226 42.1011 80.5786 41.8446L81.3181 42.0119C81.2397 42.3241 81.1445 42.6196 81.0324 42.8983C80.9316 43.1659 80.7691 43.4391 80.545 43.7179L81.503 44.7548L80.9316 45.2733L80.0072 44.3032C79.6263 44.6489 79.1613 44.9276 78.6123 45.1395C78.0633 45.3402 77.4526 45.4406 76.7804 45.4406C76.2986 45.4406 75.8224 45.3737 75.3518 45.2399C74.8812 45.0949 74.4611 44.8775 74.0913 44.5876C73.7216 44.2977 73.4191 43.9353 73.1838 43.5004C72.9485 43.0544 72.8308 42.5471 72.8308 41.9784C72.8308 41.2425 72.9989 40.6014 73.335 40.055C73.4919 39.7986 73.6768 39.57 73.8896 39.3693C74.1137 39.1574 74.3882 38.9512 74.7132 38.7505C74.5899 38.5609 74.4891 38.3546 74.4106 38.1316C74.3434 37.9086 74.3098 37.6912 74.3098 37.4793C74.3098 37.1337 74.3658 36.8215 74.4779 36.5427C74.6011 36.264 74.7692 36.0242 74.9821 35.8235C75.2398 35.5671 75.5535 35.3719 75.9232 35.2381C76.3042 35.1043 76.7131 35.0374 77.1501 35.0374C77.7103 35.0374 78.1977 35.1489 78.6123 35.3719C79.038 35.595 79.3798 35.896 79.6375 36.2751L79.0492 36.7267ZM76.814 44.6712C77.3182 44.6712 77.8 44.5876 78.2593 44.4203C78.7299 44.2419 79.1277 44.0078 79.4526 43.7179L75.1669 39.2857C74.6739 39.5756 74.3098 39.9491 74.0745 40.4063C73.8616 40.8188 73.7552 41.3373 73.7552 41.9617C73.7552 42.352 73.8392 42.7088 74.0073 43.0321C74.1754 43.3555 74.3882 43.6342 74.6459 43.8684C74.926 44.1248 75.251 44.3255 75.6207 44.4705C75.9905 44.6043 76.3882 44.6712 76.814 44.6712Z" fill="white"/>
<path d="M87.8891 35.2214H95.452V36.0577H88.8302V39.5198H94.7461V40.3394H88.8302V44.437H95.7041V45.2566H87.8891V35.2214Z" fill="white"/>
<path d="M101.111 45.2566L96.7913 35.2214H97.8333L101.682 44.5374H101.984L105.867 35.2214H106.858L102.522 45.2566H101.111Z" fill="white"/>
<path d="M116.331 45.2064L115.928 45.29L115.608 44.3367C115.138 44.6935 114.65 44.9667 114.146 45.1562C113.642 45.3458 113.054 45.4406 112.382 45.4406C111.709 45.4406 111.082 45.3402 110.499 45.1395C109.917 44.9388 109.39 44.6545 108.919 44.2865C108.314 43.7959 107.849 43.1994 107.524 42.4969C107.2 41.7944 107.037 41.0307 107.037 40.2055C107.037 39.4808 107.172 38.8062 107.44 38.1818C107.709 37.5574 108.079 37.011 108.55 36.5427C109.031 36.0744 109.597 35.7065 110.247 35.4389C110.897 35.1712 111.62 35.0374 112.415 35.0374C113.244 35.0374 113.973 35.1545 114.6 35.3887C115.227 35.6117 115.793 35.935 116.297 36.3587L115.793 36.9608C115.345 36.604 114.846 36.3309 114.297 36.1413C113.76 35.9518 113.132 35.857 112.415 35.857C111.765 35.857 111.166 35.9685 110.617 36.1915C110.068 36.4145 109.592 36.7323 109.188 37.1448C108.819 37.5351 108.522 37.9867 108.298 38.4996C108.085 39.0125 107.978 39.5811 107.978 40.2055C107.978 40.8746 108.096 41.4767 108.331 42.0119C108.566 42.5471 108.88 43.0098 109.272 43.4001C109.676 43.7903 110.141 44.0914 110.667 44.3032C111.194 44.5151 111.765 44.621 112.382 44.621C113.02 44.621 113.58 44.5374 114.062 44.3701C114.544 44.2029 114.998 43.9632 115.424 43.651V40.4732L112.566 40.3728V39.7038H116.331V45.2064Z" fill="white"/>
<path d="M118.006 35.2214H125.569V36.0577H118.947V39.5198H124.863V40.3394H118.947V44.437H125.821V45.2566H118.006V35.2214Z" fill="white"/>
<path d="M136.69 35.2214V45.2566H135.648L128.236 36.3922V45.2566H127.329V35.2214H128.387L135.816 44.0524V35.2214H136.69Z" fill="white"/>
<path d="M139.315 45.2566H138.374V35.2214H139.315V45.2566Z" fill="white"/>
<path d="M146.513 35.2214L151 45.2566H149.992L149.084 43.2328H142.446L141.555 45.2566H140.58L145.051 35.2214H146.513ZM142.782 42.4133H148.748L145.992 36.0242H145.588L142.782 42.4133Z" fill="white"/>
</svg>
